<svg width="34" height="33" viewBox="0 0 34 33" fill="none" xmlns="http://www.w3.org/2000/svg">
<path fill-rule="evenodd" clip-rule="evenodd" d="M22.7497 20.626H20.6872V24.751H16.5622V26.8135H20.6872V30.9385H22.7497V26.8135H26.8747V24.751H22.7497V20.626ZM13.584 4.47452C13.3588 4.32393 13.1061 4.21917 12.8404 4.16622C12.5747 4.11328 12.3012 4.11318 12.0354 4.16595C11.7697 4.21871 11.517 4.3233 11.2917 4.47374C11.0663 4.62418 10.8729 4.81752 10.7223 5.04274C10.5717 5.26795 10.4669 5.52062 10.414 5.78632C10.361 6.05202 10.3609 6.32554 10.4137 6.59128C10.4665 6.85701 10.571 7.10975 10.7215 7.33507C10.8719 7.56039 11.0653 7.75386 11.2905 7.90446C11.7453 8.20859 12.3024 8.31959 12.839 8.21303C13.3757 8.10647 13.8481 7.79108 14.1522 7.33624C14.4563 6.8814 14.5673 6.32437 14.4608 5.7877C14.3542 5.25102 14.0388 4.77866 13.584 4.47452ZM10.1458 2.75852C10.596 2.44641 11.1038 2.22709 11.6396 2.11335C12.1754 1.9996 12.7285 1.99372 13.2667 2.09604C13.8048 2.19836 14.3171 2.40683 14.7738 2.70929C15.2305 3.01175 15.6224 3.40214 15.9266 3.85768C16.2308 4.31322 16.4412 4.82478 16.5456 5.36251C16.6499 5.90025 16.6462 6.45338 16.5345 6.98964C16.4227 7.52589 16.2054 8.03453 15.895 8.48587C15.5846 8.93721 15.1874 9.3222 14.7266 9.61839C13.8168 10.1944 12.7179 10.3918 11.6646 10.1685C10.6112 9.94517 9.68691 9.31881 9.08912 8.42322C8.49134 7.52762 8.26745 6.43377 8.46527 5.37533C8.6631 4.31688 9.26489 3.37775 10.1458 2.75852ZM9.90036 11.3241H14.9741C15.9423 11.3241 16.8709 11.7087 17.5555 12.3933C18.2401 13.0779 18.6247 14.0065 18.6247 14.9747V16.501H16.5622V14.9747C16.565 14.7654 16.5258 14.5576 16.447 14.3637C16.3682 14.1698 16.2513 13.9936 16.1033 13.8456C15.9552 13.6975 15.7791 13.5807 15.5851 13.5018C15.3912 13.423 15.1834 13.3838 14.9741 13.3866H9.90036C9.69104 13.3838 9.48328 13.423 9.28935 13.5018C9.09541 13.5807 8.91924 13.6975 8.77121 13.8456C8.62318 13.9936 8.50631 14.1698 8.42748 14.3637C8.34865 14.5576 8.30946 14.7654 8.31224 14.9747V20.626H10.3747V27.4528C10.3747 27.5622 10.4182 27.6672 10.4956 27.7445C10.5729 27.8219 10.6778 27.8653 10.7872 27.8653H12.4372V29.9691H10.7872C10.1308 29.9691 9.5013 29.7083 9.03715 29.2442C8.573 28.78 8.31224 28.1505 8.31224 27.4941V22.6885C7.73957 22.6564 7.20242 22.4007 6.8166 21.9762C6.43079 21.5518 6.2272 20.9928 6.24974 20.4197V14.9747C6.24974 14.0065 6.63436 13.0779 7.31898 12.3933C8.00361 11.7087 8.93216 11.3241 9.90036 11.3241Z" fill="white"/>
</svg>
