<svg width="33" height="33" viewBox="0 0 33 33" fill="none" xmlns="http://www.w3.org/2000/svg">
<path d="M23.0723 14.1155L17.7914 19.7789C17.1269 19.8149 16.5018 20.0951 16.0446 20.562C15.5873 21.0288 15.3326 21.647 15.3326 22.2895H20.5419C20.5419 21.9542 20.4724 21.6223 20.3375 21.3134C20.2027 21.0044 20.0051 20.7247 19.7566 20.4905L24.5231 15.3777C24.6122 15.2863 24.6814 15.1786 24.7268 15.061C24.7721 14.9434 24.7927 14.8183 24.7873 14.6929C24.782 14.5675 24.7507 14.4444 24.6954 14.3309C24.6401 14.2173 24.5619 14.1155 24.4653 14.0315C24.3688 13.9475 24.2558 13.883 24.1331 13.8417C24.0103 13.8003 23.8803 13.7831 23.7506 13.7909C23.6208 13.7987 23.494 13.8315 23.3775 13.8872C23.2611 13.9429 23.1573 14.0206 23.0723 14.1155ZM8.82098 20.0895C8.56193 20.0895 8.31349 20.1888 8.13032 20.3656C7.94714 20.5424 7.84424 20.7822 7.84424 21.0323C7.84424 21.2824 7.94714 21.5222 8.13032 21.699C8.31349 21.8758 8.56193 21.9752 8.82098 21.9752H10.7745C11.0335 21.9752 11.282 21.8758 11.4651 21.699C11.6483 21.5222 11.7512 21.2824 11.7512 21.0323C11.7512 20.7822 11.6483 20.5424 11.4651 20.3656C11.282 20.1888 11.0335 20.0895 10.7745 20.0895H8.82098ZM28.0303 21.0323C28.0303 20.7822 27.9274 20.5424 27.7442 20.3656C27.561 20.1888 27.3126 20.0895 27.0535 20.0895H25.1001C24.841 20.0895 24.5926 20.1888 24.4094 20.3656C24.2262 20.5424 24.1233 20.7822 24.1233 21.0323C24.1233 21.2824 24.2262 21.5222 24.4094 21.699C24.5926 21.8758 24.841 21.9752 25.1001 21.9752H27.0535C27.3126 21.9752 27.561 21.8758 27.7442 21.699C27.9274 21.5222 28.0303 21.2824 28.0303 21.0323Z" fill="white"/>
<path d="M25.7515 17.2585C26.0969 17.2585 26.4282 17.126 26.6724 16.8903C26.9166 16.6545 27.0538 16.3348 27.0538 16.0013C27.0538 15.6679 26.9166 15.3482 26.6724 15.1124C26.4282 14.8766 26.0969 14.7442 25.7515 14.7442C25.4061 14.7442 25.0749 14.8766 24.8306 15.1124C24.5864 15.3482 24.4492 15.6679 24.4492 16.0013C24.4492 16.3348 24.5864 16.6545 24.8306 16.8903C25.0749 17.126 25.4061 17.2585 25.7515 17.2585ZM11.4259 16.0013C11.4259 16.3348 11.2887 16.6545 11.0445 16.8903C10.8003 17.126 10.469 17.2585 10.1236 17.2585C9.77822 17.2585 9.44697 17.126 9.20273 16.8903C8.9585 16.6545 8.82129 16.3348 8.82129 16.0013C8.82129 15.6679 8.9585 15.3482 9.20273 15.1124C9.44697 14.8766 9.77822 14.7442 10.1236 14.7442C10.469 14.7442 10.8003 14.8766 11.0445 15.1124C11.2887 15.3482 11.4259 15.6679 11.4259 16.0013ZM12.7283 12.8585C13.0737 12.8585 13.4049 12.726 13.6491 12.4903C13.8934 12.2545 14.0306 11.9348 14.0306 11.6013C14.0306 11.2679 13.8934 10.9482 13.6491 10.7124C13.4049 10.4766 13.0737 10.3442 12.7283 10.3442C12.3829 10.3442 12.0516 10.4766 11.8074 10.7124C11.5631 10.9482 11.4259 11.2679 11.4259 11.6013C11.4259 11.9348 11.5631 12.2545 11.8074 12.4903C12.0516 12.726 12.3829 12.8585 12.7283 12.8585ZM24.4492 11.6013C24.4492 11.9348 24.312 12.2545 24.0678 12.4903C23.8235 12.726 23.4923 12.8585 23.1469 12.8585C22.8015 12.8585 22.4702 12.726 22.226 12.4903C21.9818 12.2545 21.8445 11.9348 21.8445 11.6013C21.8445 11.2679 21.9818 10.9482 22.226 10.7124C22.4702 10.4766 22.8015 10.3442 23.1469 10.3442C23.4923 10.3442 23.8235 10.4766 24.0678 10.7124C24.312 10.9482 24.4492 11.2679 24.4492 11.6013ZM18.9143 8.45848C18.9143 8.20842 18.8114 7.9686 18.6282 7.79178C18.4451 7.61496 18.1966 7.51563 17.9376 7.51562C17.6785 7.51563 17.4301 7.61496 17.2469 7.79178C17.0637 7.9686 16.9608 8.20842 16.9608 8.45848V10.3442C16.9608 10.5943 17.0637 10.8341 17.2469 11.0109C17.4301 11.1877 17.6785 11.2871 17.9376 11.2871C18.1966 11.2871 18.4451 11.1877 18.6282 11.0109C18.8114 10.8341 18.9143 10.5943 18.9143 10.3442V8.45848Z" fill="white"/>
<path d="M17.9375 5C10.2056 5 3.9375 11.0506 3.9375 18.5143C3.9375 20.3975 4.33731 22.1939 5.0601 23.8245L5.06662 23.8395C5.34662 24.4706 5.53936 24.9056 6.13062 25.5141C6.36894 25.7592 6.70234 26.0043 7.01229 26.203C7.32224 26.4003 7.6882 26.599 8.01508 26.7146C8.82773 27 9.5362 27 10.5377 27H25.3373C26.3388 27 27.0473 27 27.8599 26.7146C28.1881 26.599 28.5528 26.4003 28.8627 26.203C29.1727 26.0056 29.5061 25.7592 29.7444 25.5141C30.3356 24.9056 30.5297 24.4706 30.8084 23.8395L30.8149 23.8245C31.5377 22.1939 31.9375 20.3975 31.9375 18.5143C31.9375 11.0506 25.6694 5 17.9375 5ZM5.89099 18.5143C5.89099 15.4302 7.16017 12.4724 9.41933 10.2916C11.6785 8.11086 14.7426 6.88571 17.9375 6.88571C21.1324 6.88571 24.1965 8.11086 26.4557 10.2916C28.7148 12.4724 29.984 15.4302 29.984 18.5143C29.984 20.1385 29.6402 21.6823 29.019 23.0827C28.7533 23.6824 28.6713 23.8622 28.3209 24.223C28.2285 24.3173 28.0344 24.4706 27.787 24.629C27.5395 24.7862 27.3182 24.8981 27.1905 24.9433C26.7321 25.1042 26.3675 25.1143 25.2344 25.1143H10.6406C9.50755 25.1143 9.1429 25.1042 8.68448 24.9433C8.47524 24.8581 8.27541 24.7528 8.08801 24.629C7.89637 24.5113 7.71748 24.3753 7.55406 24.223C7.20373 23.8622 7.12169 23.6824 6.85601 23.0827C6.2164 21.639 5.88805 20.0846 5.89099 18.5143Z" fill="white"/>
</svg>
