<svg width="24" height="24" viewBox="0 0 24 24" fill="none" xmlns="http://www.w3.org/2000/svg">
<path fill-rule="evenodd" clip-rule="evenodd" d="M3.32308 0H3.23077C2.808 0 2.44431 1.37539e-08 2.12308 0.0756865C1.62579 0.194505 1.17111 0.448666 0.80941 0.81001C0.447713 1.17135 0.193122 1.62577 0.0738461 2.12291C-6.87746e-08 2.44412 0 2.80594 0 3.23052V7.84555C0 8.26829 1.37549e-08 8.63195 0.0756923 8.95316C0.19452 9.45041 0.448701 9.90505 0.810073 10.2667C1.17144 10.6284 1.6259 10.883 2.12308 11.0022C2.44431 11.0761 2.80615 11.0761 3.23077 11.0761H7.84615C8.26892 11.0761 8.63262 11.0761 8.95385 11.0004C9.45113 10.8816 9.90582 10.6274 10.2675 10.2661C10.6292 9.90472 10.8838 9.4503 11.0031 8.95316C11.0769 8.63195 11.0769 8.27013 11.0769 7.84555V3.23052C11.0769 2.80778 11.0769 2.44412 11.0012 2.12291C10.8824 1.62566 10.6282 1.17102 10.2669 0.809348C9.90548 0.447678 9.45103 0.193107 8.95385 0.0738404C8.63262 -6.87693e-08 8.27077 0 7.84615 0H3.32308ZM2.55323 1.87186C2.63262 1.8534 2.75631 1.84601 3.32308 1.84601H7.75385C8.32246 1.84601 8.44431 1.85155 8.52369 1.87186C8.68953 1.91151 8.84115 1.99632 8.96172 2.11689C9.08229 2.23745 9.16711 2.38905 9.20677 2.55488C9.22523 2.63241 9.23077 2.75425 9.23077 3.32282V7.75325C9.23077 8.32182 9.22523 8.44366 9.20492 8.52304C9.16527 8.68886 9.08045 8.84047 8.95987 8.96103C8.8393 9.08159 8.68769 9.16641 8.52185 9.20606C8.44615 9.22267 8.32431 9.23006 7.75385 9.23006H3.32308C2.75446 9.23006 2.63262 9.22452 2.55323 9.20422C2.38739 9.16456 2.23578 9.07975 2.1152 8.95918C1.99463 8.83862 1.90981 8.68702 1.87015 8.52119C1.85354 8.4455 1.84615 8.32367 1.84615 7.75325V3.32282C1.84615 2.75425 1.85169 2.63241 1.872 2.55303C1.91166 2.38721 1.99648 2.2356 2.11705 2.11504C2.23762 1.99448 2.38924 1.90967 2.55508 1.87001L2.55323 1.87186ZM16.2462 0H16.1538C15.7311 0 15.3674 1.37539e-08 15.0462 0.0756865C14.5489 0.194505 14.0942 0.448666 13.7325 0.81001C13.3708 1.17135 13.1162 1.62577 12.9969 2.12291C12.9231 2.44412 12.9231 2.80594 12.9231 3.23052V7.84555C12.9231 8.26829 12.9231 8.63195 12.9988 8.95316C13.1176 9.45041 13.3718 9.90505 13.7331 10.2667C14.0945 10.6284 14.549 10.883 15.0462 11.0022C15.3674 11.0761 15.7292 11.0761 16.1538 11.0761H20.7692C21.192 11.0761 21.5557 11.0761 21.8769 11.0004C22.3742 10.8816 22.8289 10.6274 23.1906 10.2661C23.5523 9.90472 23.8069 9.4503 23.9262 8.95316C24 8.63195 24 8.27013 24 7.84555V3.23052C24 2.80778 24 2.44412 23.9243 2.12291C23.8055 1.62566 23.5513 1.17102 23.1899 0.809348C22.8286 0.447678 22.3741 0.193107 21.8769 0.0738404C21.5557 -6.87693e-08 21.1938 0 20.7692 0H16.2462ZM15.4763 1.87186C15.5557 1.8534 15.6794 1.84601 16.2462 1.84601H20.6769C21.2455 1.84601 21.3674 1.85155 21.4468 1.87186C21.6126 1.91151 21.7642 1.99632 21.8848 2.11689C22.0054 2.23745 22.0902 2.38905 22.1298 2.55488C22.1483 2.63241 22.1538 2.75425 22.1538 3.32282V7.75325C22.1538 8.32182 22.1465 8.44366 22.128 8.52304C22.0883 8.68886 22.0035 8.84047 21.8829 8.96103C21.7624 9.08159 21.6108 9.16641 21.4449 9.20606C21.3674 9.22452 21.2455 9.23006 20.6769 9.23006H16.2462C15.6775 9.23006 15.5557 9.22452 15.4763 9.20422C15.3105 9.16456 15.1589 9.07975 15.0383 8.95918C14.9177 8.83862 14.8329 8.68702 14.7932 8.52119C14.7766 8.4455 14.7692 8.32367 14.7692 7.75325V3.32282C14.7692 2.75425 14.7748 2.63241 14.7951 2.55303C14.8347 2.38721 14.9196 2.2356 15.0401 2.11504C15.1607 1.99448 15.3123 1.90967 15.4782 1.87001L15.4763 1.87186ZM3.23077 12.9221H7.84615C8.26892 12.9221 8.63262 12.9221 8.95385 12.9978C9.45113 13.1166 9.90582 13.3707 10.2675 13.7321C10.6292 14.0934 10.8838 14.5479 11.0031 15.045C11.0769 15.3662 11.0769 15.728 11.0769 16.1526V20.7676C11.0769 21.1904 11.0769 21.554 11.0012 21.8752C10.8824 22.3725 10.6282 22.8271 10.2669 23.1888C9.90548 23.5505 9.45103 23.805 8.95385 23.9243C8.63262 23.9982 8.27077 23.9982 7.84615 23.9982H3.23077C2.808 23.9982 2.44431 23.9982 2.12308 23.9225C1.62579 23.8036 1.17111 23.5495 0.80941 23.1881C0.447713 22.8268 0.193122 22.3724 0.0738461 21.8752C-6.87746e-08 21.554 0 21.1922 0 20.7676V16.1526C0 15.7299 1.37549e-08 15.3662 0.0756923 15.045C0.19452 14.5477 0.448701 14.0931 0.810073 13.7314C1.17144 13.3698 1.6259 13.1152 2.12308 12.9959C2.44431 12.9221 2.80615 12.9221 3.23077 12.9221ZM3.32308 14.7681C2.75446 14.7681 2.63262 14.7736 2.55323 14.7939C2.38739 14.8336 2.23578 14.9184 2.1152 15.039C1.99463 15.1595 1.90981 15.3111 1.87015 15.477C1.85354 15.5526 1.84615 15.6745 1.84615 16.2449V20.6753C1.84615 21.2439 1.85169 21.3657 1.872 21.4451C1.91166 21.6109 1.99648 21.7625 2.11705 21.8831C2.23762 22.0037 2.38924 22.0885 2.55508 22.1281C2.63262 22.1466 2.75446 22.1521 3.32308 22.1521H7.75385C8.32246 22.1521 8.44431 22.1448 8.52369 22.1263C8.68953 22.0866 8.84115 22.0018 8.96172 21.8813C9.08229 21.7607 9.16711 21.6091 9.20677 21.4433C9.22523 21.3657 9.23077 21.2439 9.23077 20.6753V16.2449C9.23077 15.6763 9.22523 15.5545 9.20492 15.4751C9.16527 15.3093 9.08045 15.1577 8.95987 15.0371C8.8393 14.9166 8.68769 14.8317 8.52185 14.7921C8.44615 14.7755 8.32431 14.7681 7.75385 14.7681H3.32308ZM16.2462 12.9221H16.1538C15.7311 12.9221 15.3674 12.9221 15.0462 12.9978C14.5489 13.1166 14.0942 13.3707 13.7325 13.7321C13.3708 14.0934 13.1162 14.5479 12.9969 15.045C12.9231 15.3662 12.9231 15.728 12.9231 16.1526V20.7676C12.9231 21.1904 12.9231 21.554 12.9988 21.8752C13.1176 22.3725 13.3718 22.8271 13.7331 23.1888C14.0945 23.5505 14.549 23.805 15.0462 23.9243C15.3674 24 15.7311 24 16.1538 24H20.7692C21.192 24 21.5557 24 21.8769 23.9243C22.3739 23.8052 22.8282 23.5509 23.1895 23.1896C23.5509 22.8283 23.8052 22.374 23.9243 21.8771C24 21.5559 24 21.1922 24 20.7695V16.1526C24 15.7299 24 15.3662 23.9243 15.045C23.8055 14.5477 23.5513 14.0931 23.1899 13.7314C22.8286 13.3698 22.3741 13.1152 21.8769 12.9959C21.5557 12.9221 21.1938 12.9221 20.7692 12.9221H16.2462ZM15.4763 14.7939C15.5557 14.7755 15.6794 14.7681 16.2462 14.7681H20.6769C21.2455 14.7681 21.3674 14.7736 21.4468 14.7939C21.6126 14.8336 21.7642 14.9184 21.8848 15.039C22.0054 15.1595 22.0902 15.3111 22.1298 15.477C22.1483 15.5545 22.1538 15.6763 22.1538 16.2449V20.6753C22.1538 21.2439 22.1465 21.3657 22.128 21.4451C22.0883 21.6109 22.0035 21.7625 21.8829 21.8831C21.7624 22.0037 21.6108 22.0885 21.4449 22.1281C21.3674 22.1466 21.2455 22.1521 20.6769 22.1521H16.2462C15.6775 22.1521 15.5557 22.1448 15.4763 22.1263C15.3105 22.0866 15.1589 22.0018 15.0383 21.8813C14.9177 21.7607 14.8329 21.6091 14.7932 21.4433C14.7766 21.3676 14.7692 21.2457 14.7692 20.6753V16.2449C14.7692 15.6763 14.7748 15.5545 14.7951 15.4751C14.8347 15.3093 14.9196 15.1577 15.0401 15.0371C15.1607 14.9166 15.3123 14.8317 15.4782 14.7921L15.4763 14.7939Z" fill="white"/>
</svg>
