<svg width="23" height="35" viewBox="0 0 23 35" fill="none" xmlns="http://www.w3.org/2000/svg">
<path fill-rule="evenodd" clip-rule="evenodd" d="M5.94388 3.62305C7.20878 3.62305 8.2333 4.08162 8.2333 4.64844C8.2333 5.21525 7.20878 5.67383 5.94388 5.67383C4.67898 5.67383 3.65447 5.21525 3.65447 4.64844C3.65447 4.08162 4.67898 3.62305 5.94388 3.62305ZM11.4957 15.6799C11.7075 16.5857 11.9536 17.3063 12.2226 17.8446C12.4945 18.3801 12.9094 18.9612 13.4675 19.5907L13.7079 19.8584C14.4376 20.6645 14.7982 21.4734 14.7982 22.2795C14.7982 23.1738 14.4748 23.9372 13.8252 24.578C13.1756 25.2161 12.3972 25.5379 11.4957 25.5379C10.5943 25.5379 9.81871 25.2161 9.16909 24.578C8.51947 23.94 8.19609 23.1738 8.19609 22.2795C8.19609 21.4734 8.55954 20.6645 9.28642 19.8584L9.52681 19.5907C10.0849 18.964 10.4998 18.383 10.7717 17.8446C11.0435 17.3063 11.2868 16.5828 11.4957 15.6799ZM9.30932 21.7952C9.29215 21.613 9.42951 21.4506 9.61267 21.4335C9.79582 21.4164 9.95894 21.5531 9.97611 21.7354C10.019 22.1769 10.1163 22.5871 10.3024 22.9374C10.4826 23.2764 10.7488 23.5697 11.1351 23.7948C11.2954 23.8888 11.3469 24.091 11.2553 24.2505C11.1609 24.41 10.9577 24.4613 10.7974 24.3701C10.2938 24.0767 9.94463 23.6951 9.70997 23.2479C9.48102 22.8149 9.36083 22.3222 9.30932 21.7952ZM11.4757 0C14.5263 0 17.3022 0.467122 19.3226 1.22192C21.5147 2.03939 22.8684 3.22713 22.8684 4.58578C22.8684 5.07284 22.6938 5.53711 22.3704 5.97005V10.9432C22.1129 11.2138 21.8066 11.4644 21.4546 11.6952C19.0822 13.2532 14.8211 13.8599 10.7144 13.7345C6.61926 13.6092 2.71009 12.7604 1.03024 11.4075C0.8757 11.2821 0.741197 11.1568 0.63245 11.0258L0.666791 10.9888V6.08398C0.286176 5.61971 0.0801294 5.11556 0.0801294 4.58578C0.0801294 3.22428 1.43661 2.03939 3.62586 1.22192C5.64912 0.467122 8.42503 0 11.4757 0ZM22.8054 11.6695C22.9342 11.9373 23 12.0996 23 12.4984C23 12.8971 22.7796 13.5067 22.3733 13.9653V23.9087C22.1157 24.1793 21.8095 24.4299 21.4575 24.6606C19.0851 26.2187 14.8239 26.8254 10.7173 26.7C6.61926 26.5747 2.71009 25.7259 1.03024 24.3701C0.867114 24.2391 0.72975 24.1052 0.618141 23.9714C0.635312 23.9514 0.64962 23.9343 0.666791 23.9172V14.0051C0.234665 13.5352 0 12.8914 0 12.4955C0 12.0996 0.0572353 11.9771 0.168844 11.7265C0.274729 11.8347 0.3892 11.9373 0.512256 12.0369C2.33234 13.5038 6.43325 14.4181 10.6944 14.5492C14.947 14.6802 19.3885 14.0308 21.9097 12.3759C22.2416 12.1594 22.5393 11.923 22.8054 11.6695ZM22.8168 24.6208C22.937 24.88 23 25.0309 23 25.424C23 25.8171 22.7796 26.4323 22.3733 26.8909V29.3376C22.7138 29.7506 22.897 30.1892 22.897 30.6449C22.897 33.0489 17.7944 35 11.5014 35C5.20841 35 0.105885 33.0518 0.105885 30.6449C0.105885 30.1721 0.303347 29.7192 0.666791 29.2948V26.9336C0.234665 26.4608 0 25.8142 0 25.424C0 25.0338 0.0543735 24.9227 0.157397 24.6806C0.266144 24.7917 0.383476 24.8999 0.512256 25.0024C2.33234 26.4693 6.43325 27.3836 10.6944 27.5147C14.947 27.6457 19.3885 26.9963 21.9097 25.3414C22.2445 25.1192 22.5507 24.88 22.8168 24.6208ZM18.819 2.28149C16.9531 1.58366 14.3575 1.15356 11.4757 1.15356C8.59388 1.15356 5.99826 1.58366 4.13239 2.28149C2.43536 2.91382 1.38509 3.73413 1.38509 4.58578C1.38509 5.44027 2.43536 6.25773 4.13239 6.89006C5.99826 7.58504 8.59388 8.01799 11.4757 8.01799C14.3575 8.01799 16.9531 7.58789 18.819 6.89006C20.516 6.25773 21.5663 5.43742 21.5663 4.58578C21.5663 3.73413 20.516 2.91382 18.819 2.28149ZM5.94388 4.16423C6.7137 4.16423 7.33756 4.3807 7.33756 4.64844C7.33756 4.91618 6.7137 5.13265 5.94388 5.13265C5.17407 5.13265 4.5502 4.91618 4.5502 4.64844C4.5502 4.38354 5.17407 4.16423 5.94388 4.16423Z" fill="black"/>
</svg>
