<svg width="40" height="26" viewBox="0 0 40 26" fill="none" xmlns="http://www.w3.org/2000/svg">
<path fill-rule="evenodd" clip-rule="evenodd" d="M2.10938 3.34661C1.62435 3.43726 1.04167 2.17463 1.50065 1.96743C8.73372 -2.17338 9.46289 1.25517 16.6243 2.89336L16.7155 2.63759C16.9434 2.00951 16.9336 2.20377 17.6563 2.40449L18.0046 2.50162C19.196 2.83185 18.6686 2.73796 19.6322 2.12606C21.8066 0.746877 25.0977 1.06739 27.2949 2.47572C29.1992 3.69627 29.3457 4.71933 29.7982 6.7007C30.2148 8.51695 36.1654 13.8524 40 17.4202L38.1901 19.2915L35.6738 16.6852L33.0957 19.5051C32.3991 20.2659 31.9434 21.0753 30.7975 20.9944C30.0228 20.9394 28.0046 19.7836 27.2168 19.3951L23.9193 17.7666C23.3268 17.2065 23.0469 16.478 23.1055 15.5618C22.2428 15.6719 21.5007 15.4679 20.8691 14.9661C18.597 13.1628 19.7852 11.9487 19.4694 9.97384C19.4466 9.83786 19.4206 9.69865 19.3848 9.56267C18.8704 7.49065 17.7311 6.83343 16.0677 6.07585C15.5404 5.83627 15.5957 5.96254 15.7975 5.41863L15.8789 5.19848C9.65169 3.58943 8.30729 0.393986 2.10938 3.34661ZM1.3151 3.28834C1.64388 4.73551 2.63021 5.45748 2.63021 6.17945C2.63021 6.90142 2.30143 7.62663 1.3151 7.62663C0.328776 7.62663 0 6.90466 0 6.17945C0 5.45748 0.986328 4.73551 1.3151 3.28834ZM25.3483 13.4866C25.4655 13.1013 25.4167 12.6642 25.0553 12.3178L26.4518 11.1555C26.9954 10.7703 27.6042 10.5922 28.291 10.6764C30.166 10.9062 32.972 14.1244 34.4173 15.4453L31.6211 18.5921C29.9902 16.2579 28.1478 13.2049 25.3483 13.4866ZM24.8177 15.0373C24.9772 14.924 25.166 14.8722 25.3874 14.8819L26.7383 17.3813C26.0742 17.1676 23.3887 16.0636 24.8177 15.0373ZM26.5397 14.6229C27.5098 15.0956 28.9128 16.7597 30.2962 18.5274C30.5534 18.7346 30.2637 19.34 29.6159 18.8414L28.7663 18.3914C27.194 17.5076 27.015 16.6723 26.5397 14.6229Z" fill="#1D2F28"/>
</svg>
