<svg width="28" height="31" viewBox="0 0 28 31" fill="none" xmlns="http://www.w3.org/2000/svg">
<g clip-path="url(#clip0_2270_8740)">
<path fill-rule="evenodd" clip-rule="evenodd" d="M25.0112 5.09603C25.0793 5.12883 25.1399 5.17171 25.198 5.22721C25.2131 5.24235 25.2257 5.25749 25.2384 5.27262C25.9679 5.85034 26.6974 6.50374 27.2276 7.29085C27.8132 8.16121 28.1388 9.16781 27.9419 10.3611C27.8586 10.8606 27.6693 11.297 27.3815 11.683C27.1745 11.958 26.9221 12.2002 26.6242 12.4121C26.6091 12.7981 26.604 13.1765 26.604 13.5524C26.6066 14.0343 26.6217 14.5312 26.6495 15.0409C26.7126 16.2367 26.8918 17.4425 27.071 18.6383C27.2629 19.925 27.4547 21.2015 27.5052 22.531C27.5734 24.2339 27.3714 25.634 26.8085 26.623C26.1825 27.7279 25.1652 28.3183 23.6657 28.2653C21.8759 28.2325 20.7753 27.2284 20.278 25.3742C19.8439 23.752 19.9095 21.4361 20.4017 18.5223C20.3866 16.2139 20.0862 14.4657 19.4904 13.2875C19.1017 12.5181 18.5741 12.0085 17.9077 11.7663V26.8828C18.1248 26.9862 18.3217 27.1275 18.4883 27.2965C18.872 27.68 19.1118 28.2123 19.1118 28.7976V30.3062C19.1118 30.6872 18.8013 30.9975 18.4201 30.9975H0.69167C0.310494 30.9975 0 30.6872 0 30.3062V28.7976C0 28.2123 0.239812 27.6825 0.623512 27.2965C0.742157 27.178 0.875947 27.072 1.01983 26.9837V3.66309C1.01983 2.65397 1.4313 1.7382 2.0952 1.07471C2.75911 0.411214 3.67544 0 4.68518 0H14.2221C15.2344 0 16.1558 0.413737 16.8222 1.07975C17.4886 1.74577 17.9026 2.66659 17.9026 3.68075V10.3308C19.1295 10.5982 20.066 11.3828 20.7173 12.6694C21.4165 14.0494 21.7649 16.0273 21.775 18.5879C21.775 18.6283 21.7724 18.6686 21.7649 18.7065H21.7674C21.3004 21.4487 21.2247 23.5881 21.6084 25.0185C21.929 26.2218 22.6055 26.8727 23.6884 26.8879H23.701C24.625 26.9181 25.2384 26.5801 25.5994 25.9418C26.026 25.19 26.1749 24.0371 26.1168 22.584C26.0689 21.3529 25.8796 20.099 25.6928 18.8376C25.511 17.6217 25.3292 16.3956 25.2611 15.109C25.2333 14.6019 25.2182 14.0847 25.2157 13.5499C25.2131 13.1261 25.2207 12.7073 25.2384 12.2961C23.9484 11.1659 23.1634 10.0356 22.921 8.91048C22.6913 7.84334 22.9336 6.81909 23.6783 5.84025C23.1104 5.45174 22.5323 5.13387 21.9466 4.87907C21.1464 4.53092 21.1414 4.50065 20.3033 4.36442C19.9272 4.30387 19.6722 3.94816 19.7328 3.57227C19.7934 3.19637 20.1493 2.94157 20.5254 3.00212C21.4746 3.15601 21.5882 3.21655 22.4995 3.61263C23.3653 3.99105 24.2009 4.47795 25.0112 5.09603ZM24.7815 6.68538C24.2993 7.33122 24.1378 7.97705 24.2791 8.62793C24.4483 9.41504 25.0364 10.2526 26.0159 11.1381C26.1143 11.0498 26.2027 10.9565 26.2759 10.8581C26.4299 10.6537 26.5334 10.4141 26.5763 10.1416C26.7075 9.3444 26.4829 8.66073 26.079 8.0603C25.7458 7.56331 25.2813 7.10417 24.7815 6.68538ZM5.51821 3.16357H13.5507C13.9672 3.16357 14.3458 3.3326 14.621 3.60758C14.6387 3.62777 14.6589 3.64543 14.6765 3.66813C14.9189 3.93807 15.0678 4.29378 15.0678 4.67725V9.7985C15.0678 10.2148 14.8987 10.5957 14.6235 10.8682C14.3509 11.1406 13.9722 11.3122 13.5532 11.3122H5.51821C5.10422 11.3122 4.72809 11.1406 4.45041 10.8682L4.44789 10.8707C4.17526 10.5982 4.00361 10.2173 4.00361 9.80103V4.67472C4.00361 4.25846 4.17274 3.88005 4.44789 3.60506C4.46809 3.5874 4.48576 3.56722 4.50847 3.55208C4.77858 3.3099 5.13199 3.16357 5.51821 3.16357ZM17.2741 28.124C17.2539 28.1265 17.2362 28.1265 17.216 28.1265H1.83267C1.74684 28.1644 1.66859 28.2174 1.60296 28.283C1.46917 28.4167 1.38586 28.6008 1.38586 28.8052V29.6226H17.7285V28.8052C17.7285 28.6034 17.6452 28.4192 17.5114 28.283C17.4432 28.2148 17.3624 28.1619 17.2741 28.124Z" fill="#1D2F28"/>
</g>
<defs>
<clipPath id="clip0_2270_8740">
<rect width="28" height="31" fill="white"/>
</clipPath>
</defs>
</svg>
