<svg width="684" height="218" viewBox="0 0 684 218" fill="none" xmlns="http://www.w3.org/2000/svg">
<path d="M0.888161 28.9049H1.67119C1.69397 29.1204 1.76751 29.3027 1.8918 29.4518C2.01816 29.5989 2.18181 29.7108 2.38275 29.7874C2.58368 29.862 2.80637 29.8993 3.0508 29.8993C3.31596 29.8993 3.55418 29.8547 3.76547 29.7656C3.97676 29.6766 4.14455 29.544 4.26884 29.3679C4.39313 29.1898 4.45528 28.9692 4.45528 28.7061C4.45528 28.4761 4.40142 28.2628 4.2937 28.066C4.18598 27.8671 4.01301 27.7066 3.77479 27.5844C3.53657 27.4621 3.22067 27.401 2.82708 27.401H2.31749V26.7796L3.9084 24.8655V24.8158H1.19889V24.1322H4.96487V24.6915L3.2621 26.7547V26.8044C3.53553 26.8169 3.79033 26.8728 4.02648 26.9722C4.2647 27.0717 4.47185 27.2063 4.64793 27.3762C4.82608 27.546 4.96487 27.7439 5.0643 27.9697C5.16373 28.1955 5.21345 28.4409 5.21345 28.7061C5.21345 29.0686 5.12023 29.3917 4.93379 29.6755C4.74943 29.9573 4.4936 30.1789 4.1663 30.3405C3.84108 30.5021 3.4651 30.5829 3.03837 30.5829C2.66136 30.5829 2.31439 30.5166 1.99745 30.384C1.68051 30.2514 1.42261 30.0598 1.22374 29.8091C1.02488 29.5585 0.913019 29.2571 0.888161 28.9049ZM8.55762 30.5829C8.08946 30.5829 7.6907 30.4555 7.36133 30.2007C7.03196 29.9438 6.78027 29.572 6.60627 29.0852C6.43226 28.5963 6.34526 28.0059 6.34526 27.314C6.34526 26.6263 6.43226 26.039 6.60627 25.5522C6.78234 25.0634 7.03507 24.6905 7.36444 24.4336C7.69587 24.1747 8.0936 24.0452 8.55762 24.0452C9.02163 24.0452 9.41832 24.1747 9.74769 24.4336C10.0791 24.6905 10.3319 25.0634 10.5059 25.5522C10.6819 26.039 10.77 26.6263 10.77 27.314C10.77 28.0059 10.683 28.5963 10.509 29.0852C10.335 29.572 10.0833 29.9438 9.75391 30.2007C9.42454 30.4555 9.02578 30.5829 8.55762 30.5829ZM8.55762 29.8993C9.02163 29.8993 9.38207 29.6755 9.63894 29.2281C9.8958 28.7807 10.0242 28.1426 10.0242 27.314C10.0242 26.763 9.9652 26.2938 9.84712 25.9064C9.73112 25.5191 9.56333 25.2239 9.34375 25.0209C9.12624 24.8179 8.8642 24.7164 8.55762 24.7164C8.09775 24.7164 7.73834 24.9432 7.4794 25.3969C7.22047 25.8484 7.091 26.4875 7.091 27.314C7.091 27.865 7.149 28.3332 7.265 28.7185C7.38101 29.1038 7.54776 29.3969 7.76527 29.5979C7.98485 29.7988 8.24896 29.8993 8.55762 29.8993ZM12.0626 30.4958V24.1322H12.8332V27.2892H12.9078L15.7664 24.1322H16.7732L14.1009 27.0033L16.7732 30.4958H15.841L13.6286 27.5378L12.8332 28.4326V30.4958H12.0626Z" fill="black" fill-opacity="0.4"/>
<path d="M1.18413 84.6218V84.0625L3.28462 81.7632C3.53113 81.4939 3.73414 81.2598 3.89364 81.0609C4.05315 80.86 4.17122 80.6715 4.24787 80.4954C4.32659 80.3173 4.36594 80.1308 4.36594 79.9361C4.36594 79.7124 4.31209 79.5187 4.20437 79.355C4.09872 79.1914 3.95372 79.065 3.76935 78.976C3.58499 78.8869 3.37784 78.8424 3.1479 78.8424C2.90347 78.8424 2.6901 78.8931 2.50781 78.9946C2.32759 79.094 2.18777 79.2339 2.08833 79.4141C1.99097 79.5943 1.94229 79.8056 1.94229 80.048H1.20898C1.20898 79.6751 1.29495 79.3478 1.46689 79.0661C1.63882 78.7843 1.8729 78.5648 2.16912 78.4073C2.46742 78.2499 2.80196 78.1712 3.17276 78.1712C3.54563 78.1712 3.87604 78.2499 4.16397 78.4073C4.45191 78.5648 4.6777 78.7771 4.84135 79.0443C5.005 79.3115 5.08683 79.6088 5.08683 79.9361C5.08683 80.1702 5.04436 80.3991 4.95943 80.6228C4.87657 80.8445 4.73156 81.092 4.52441 81.3654C4.31934 81.6368 4.03451 81.9682 3.66992 82.3598L2.24059 83.8885V83.9382H5.19869V84.6218H1.18413ZM8.55762 84.7088C8.08946 84.7088 7.6907 84.5814 7.36133 84.3266C7.03196 84.0698 6.78027 83.6979 6.60627 83.2111C6.43226 82.7223 6.34526 82.1319 6.34526 81.44C6.34526 80.7523 6.43226 80.165 6.60627 79.6782C6.78234 79.1893 7.03507 78.8165 7.36444 78.5596C7.69587 78.3007 8.0936 78.1712 8.55762 78.1712C9.02163 78.1712 9.41832 78.3007 9.74769 78.5596C10.0791 78.8165 10.3319 79.1893 10.5059 79.6782C10.6819 80.165 10.77 80.7523 10.77 81.44C10.77 82.1319 10.683 82.7223 10.509 83.2111C10.335 83.6979 10.0833 84.0698 9.75391 84.3266C9.42454 84.5814 9.02578 84.7088 8.55762 84.7088ZM8.55762 84.0252C9.02163 84.0252 9.38207 83.8015 9.63894 83.3541C9.8958 82.9066 10.0242 82.2686 10.0242 81.44C10.0242 80.889 9.9652 80.4198 9.84712 80.0324C9.73112 79.6451 9.56333 79.3499 9.34375 79.1469C9.12624 78.9439 8.8642 78.8424 8.55762 78.8424C8.09775 78.8424 7.73834 79.0692 7.4794 79.5228C7.22047 79.9744 7.091 80.6135 7.091 81.44C7.091 81.991 7.149 82.4592 7.265 82.8445C7.38101 83.2298 7.54776 83.5229 7.76527 83.7238C7.98485 83.9248 8.24896 84.0252 8.55762 84.0252ZM12.0626 84.6218V78.2582H12.8332V81.4151H12.9078L15.7664 78.2582H16.7732L14.1009 81.1293L16.7732 84.6218H15.841L13.6286 81.6637L12.8332 82.5586V84.6218H12.0626Z" fill="black" fill-opacity="0.4"/>
<path d="M4.65803 132.384V138.748H3.88743V133.503H3.83771C3.80871 133.561 3.73414 133.627 3.61399 133.702C3.49384 133.774 3.33848 133.839 3.1479 133.895C2.95733 133.948 2.73982 133.975 2.49538 133.975V133.329C2.74189 133.329 2.95526 133.284 3.13548 133.195C3.3157 133.106 3.46588 133.002 3.58603 132.882C3.70824 132.761 3.80043 132.653 3.86257 132.555C3.92679 132.458 3.96407 132.401 3.97443 132.384H4.65803ZM8.55762 138.835C8.08946 138.835 7.6907 138.708 7.36133 138.453C7.03196 138.196 6.78027 137.824 6.60627 137.337C6.43226 136.848 6.34526 136.258 6.34526 135.566C6.34526 134.878 6.43226 134.291 6.60627 133.804C6.78234 133.316 7.03507 132.943 7.36444 132.686C7.69587 132.427 8.0936 132.297 8.55762 132.297C9.02163 132.297 9.41832 132.427 9.74769 132.686C10.0791 132.943 10.3319 133.316 10.5059 133.804C10.6819 134.291 10.77 134.878 10.77 135.566C10.77 136.258 10.683 136.848 10.509 137.337C10.335 137.824 10.0833 138.196 9.75391 138.453C9.42454 138.708 9.02578 138.835 8.55762 138.835ZM8.55762 138.151C9.02163 138.151 9.38207 137.928 9.63894 137.48C9.8958 137.033 10.0242 136.395 10.0242 135.566C10.0242 135.015 9.9652 134.546 9.84712 134.159C9.73112 133.771 9.56333 133.476 9.34375 133.273C9.12624 133.07 8.8642 132.969 8.55762 132.969C8.09775 132.969 7.73834 133.195 7.4794 133.649C7.22047 134.101 7.091 134.74 7.091 135.566C7.091 136.117 7.149 136.585 7.265 136.971C7.38101 137.356 7.54776 137.649 7.76527 137.85C7.98485 138.051 8.24896 138.151 8.55762 138.151ZM12.0626 138.748V132.384H12.8332V135.541H12.9078L15.7664 132.384H16.7732L14.1009 135.256L16.7732 138.748H15.841L13.6286 135.79L12.8332 136.685V138.748H12.0626Z" fill="black" fill-opacity="0.4"/>
<path d="M14.2656 192.961C13.7975 192.961 13.3987 192.834 13.0693 192.579C12.74 192.322 12.4883 191.95 12.3143 191.463C12.1403 190.974 12.0533 190.384 12.0533 189.692C12.0533 189.004 12.1403 188.417 12.3143 187.93C12.4904 187.442 12.7431 187.069 13.0724 186.812C13.4039 186.553 13.8016 186.423 14.2656 186.423C14.7296 186.423 15.1263 186.553 15.4557 186.812C15.7871 187.069 16.0399 187.442 16.2139 187.93C16.3899 188.417 16.478 189.004 16.478 189.692C16.478 190.384 16.391 190.974 16.217 191.463C16.043 191.95 15.7913 192.322 15.4619 192.579C15.1325 192.834 14.7338 192.961 14.2656 192.961ZM14.2656 192.277C14.7296 192.277 15.0901 192.054 15.3469 191.606C15.6038 191.159 15.7322 190.521 15.7322 189.692C15.7322 189.141 15.6732 188.672 15.5551 188.285C15.4391 187.897 15.2713 187.602 15.0518 187.399C14.8343 187.196 14.5722 187.095 14.2656 187.095C13.8058 187.095 13.4463 187.321 13.1874 187.775C12.9285 188.227 12.799 188.866 12.799 189.692C12.799 190.243 12.857 190.711 12.973 191.097C13.089 191.482 13.2558 191.775 13.4733 191.976C13.6929 192.177 13.957 192.277 14.2656 192.277Z" fill="black" fill-opacity="0.4"/>
<path d="M45.7639 108.748C45.7639 106.695 45.7639 105.669 45.9512 104.819C46.6216 101.775 48.999 99.3973 52.043 98.7268C52.8933 98.5396 53.9196 98.5396 55.9722 98.5396V98.5396C58.0249 98.5396 59.0512 98.5396 59.9014 98.7268C62.9454 99.3973 65.3228 101.775 65.9933 104.819C66.1806 105.669 66.1806 106.695 66.1806 108.748V123.05H45.7639V108.748Z" fill="#9F9FF8"/>
<rect x="45.7639" y="123.051" width="20.4167" height="24.5109" fill="#9F9FF8"/>
<rect x="45.7639" y="147.562" width="20.4167" height="24.5109" fill="#9F9FF8"/>
<path d="M45.7639 172.073H66.1806V186.375C66.1806 188.428 66.1806 189.454 65.9933 190.304C65.3228 193.348 62.9454 195.726 59.9014 196.396C59.0512 196.583 58.0249 196.583 55.9722 196.583V196.583C53.9196 196.583 52.8933 196.583 52.043 196.396C48.999 195.726 46.6216 193.348 45.9512 190.304C45.7639 189.454 45.7639 188.428 45.7639 186.375V172.073Z" fill="#9F9FF8"/>
<path d="M100.375 35.2152C100.375 33.1625 100.375 32.1362 100.562 31.286C101.233 28.242 103.61 25.8646 106.654 25.1941C107.504 25.0068 108.531 25.0068 110.583 25.0068V25.0068C112.636 25.0068 113.662 25.0068 114.513 25.1941C117.557 25.8646 119.934 28.242 120.604 31.286C120.792 32.1362 120.792 33.1625 120.792 35.2152V49.5178H100.375V35.2152Z" fill="#96E2D6"/>
<rect x="100.375" y="49.5178" width="20.4167" height="24.5109" fill="#96E2D6"/>
<rect x="100.375" y="74.0286" width="20.4167" height="24.5109" fill="#96E2D6"/>
<rect x="100.375" y="98.5396" width="20.4167" height="24.5109" fill="#96E2D6"/>
<rect x="100.375" y="123.051" width="20.4167" height="24.5109" fill="#96E2D6"/>
<rect x="100.375" y="147.562" width="20.4167" height="24.5109" fill="#96E2D6"/>
<path d="M100.375 172.073H120.792V186.375C120.792 188.428 120.792 189.454 120.604 190.304C119.934 193.348 117.557 195.726 114.513 196.396C113.662 196.583 112.636 196.583 110.583 196.583V196.583C108.531 196.583 107.504 196.583 106.654 196.396C103.61 195.726 101.233 193.348 100.562 190.304C100.375 189.454 100.375 188.428 100.375 186.375V172.073Z" fill="#96E2D6"/>
<path d="M154.986 84.2369C154.986 82.1843 154.986 81.1579 155.173 80.3077C155.844 77.2637 158.221 74.8863 161.265 74.2158C162.115 74.0286 163.142 74.0286 165.194 74.0286V74.0286C167.247 74.0286 168.273 74.0286 169.124 74.2158C172.168 74.8863 174.545 77.2637 175.216 80.3077C175.403 81.1579 175.403 82.1843 175.403 84.2369V98.5395H154.986V84.2369Z" fill="black"/>
<rect x="154.986" y="98.5396" width="20.4167" height="24.5109" fill="black"/>
<rect x="154.986" y="123.051" width="20.4167" height="24.5109" fill="black"/>
<rect x="154.986" y="147.562" width="20.4167" height="24.5109" fill="black"/>
<path d="M154.986 172.073H175.403V186.375C175.403 188.428 175.403 189.454 175.216 190.304C174.545 193.348 172.168 195.726 169.124 196.396C168.273 196.583 167.247 196.583 165.194 196.583V196.583C163.142 196.583 162.115 196.583 161.265 196.396C158.221 195.726 155.844 193.348 155.173 190.304C154.986 189.454 154.986 188.428 154.986 186.375V172.073Z" fill="black"/>
<path d="M209.597 22.3709C209.597 20.3183 209.597 19.292 209.785 18.4417C210.455 15.3978 212.832 13.0204 215.876 12.3499C216.727 12.1626 217.753 12.1626 219.806 12.1626V12.1626C221.858 12.1626 222.885 12.1626 223.735 12.3499C226.779 13.0204 229.156 15.3978 229.827 18.4417C230.014 19.292 230.014 20.3183 230.014 22.3709V35.2152H209.597V22.3709Z" fill="#92BFFF"/>
<rect x="209.597" y="35.2151" width="20.4167" height="23.0526" fill="#92BFFF"/>
<rect x="209.597" y="58.2678" width="20.4167" height="23.0526" fill="#92BFFF"/>
<rect x="209.597" y="81.3203" width="20.4167" height="23.0526" fill="#92BFFF"/>
<rect x="209.597" y="104.373" width="20.4167" height="23.0526" fill="#92BFFF"/>
<rect x="209.597" y="127.426" width="20.4167" height="23.0526" fill="#92BFFF"/>
<rect x="209.597" y="150.478" width="20.4167" height="23.0526" fill="#92BFFF"/>
<path d="M209.597 173.531H230.014V186.375C230.014 188.428 230.014 189.454 229.827 190.304C229.156 193.348 226.779 195.726 223.735 196.396C222.885 196.583 221.858 196.583 219.806 196.583V196.583C217.753 196.583 216.727 196.583 215.876 196.396C212.832 195.726 210.455 193.348 209.785 190.304C209.597 189.454 209.597 188.428 209.597 186.375V173.531Z" fill="#92BFFF"/>
<path d="M264.208 133.259C264.208 131.206 264.208 130.18 264.396 129.33C265.066 126.286 267.443 123.908 270.487 123.238C271.338 123.051 272.364 123.051 274.417 123.051V123.051C276.469 123.051 277.496 123.051 278.346 123.238C281.39 123.908 283.767 126.286 284.438 129.33C284.625 130.18 284.625 131.206 284.625 133.259V147.561H264.208V133.259Z" fill="#AEC7ED"/>
<rect x="264.208" y="147.562" width="20.4167" height="24.5109" fill="#AEC7ED"/>
<path d="M264.208 172.073H284.625V186.375C284.625 188.428 284.625 189.454 284.438 190.304C283.767 193.348 281.39 195.726 278.346 196.396C277.496 196.583 276.469 196.583 274.417 196.583V196.583C272.364 196.583 271.338 196.583 270.487 196.396C267.443 195.726 265.066 193.348 264.396 190.304C264.208 189.454 264.208 188.428 264.208 186.375V172.073Z" fill="#AEC7ED"/>
<path d="M318.819 59.7262C318.819 57.6735 318.819 56.6472 319.007 55.797C319.677 52.753 322.055 50.3756 325.099 49.7051C325.949 49.5178 326.975 49.5178 329.028 49.5178V49.5178C331.08 49.5178 332.107 49.5178 332.957 49.7051C336.001 50.3756 338.378 52.753 339.049 55.797C339.236 56.6472 339.236 57.6735 339.236 59.7262V74.0288H318.819V59.7262Z" fill="#94E9B8"/>
<rect x="318.819" y="74.0286" width="20.4167" height="24.5109" fill="#94E9B8"/>
<rect x="318.819" y="98.5396" width="20.4167" height="24.5109" fill="#94E9B8"/>
<rect x="318.819" y="123.051" width="20.4167" height="24.5109" fill="#94E9B8"/>
<rect x="318.819" y="147.562" width="20.4167" height="24.5109" fill="#94E9B8"/>
<path d="M318.819 172.073H339.236V186.375C339.236 188.428 339.236 189.454 339.049 190.304C338.378 193.348 336.001 195.726 332.957 196.396C332.107 196.583 331.08 196.583 329.028 196.583V196.583C326.975 196.583 325.949 196.583 325.099 196.396C322.055 195.726 319.677 193.348 319.007 190.304C318.819 189.454 318.819 188.428 318.819 186.375V172.073Z" fill="#94E9B8"/>
<path d="M373.431 108.748C373.431 106.695 373.431 105.669 373.618 104.819C374.288 101.775 376.666 99.3973 379.71 98.7268C380.56 98.5396 381.586 98.5396 383.639 98.5396V98.5396C385.692 98.5396 386.718 98.5396 387.568 98.7268C390.612 99.3973 392.99 101.775 393.66 104.819C393.847 105.669 393.847 106.695 393.847 108.748V123.05H373.431V108.748Z" fill="#9F9FF8"/>
<rect x="373.431" y="123.051" width="20.4167" height="24.5109" fill="#9F9FF8"/>
<rect x="373.431" y="147.562" width="20.4167" height="24.5109" fill="#9F9FF8"/>
<path d="M373.431 172.073H393.847V186.375C393.847 188.428 393.847 189.454 393.66 190.304C392.99 193.348 390.612 195.726 387.568 196.396C386.718 196.583 385.692 196.583 383.639 196.583V196.583C381.586 196.583 380.56 196.583 379.71 196.396C376.666 195.726 374.288 193.348 373.618 190.304C373.431 189.454 373.431 188.428 373.431 186.375V172.073Z" fill="#9F9FF8"/>
<path d="M428.042 35.2152C428.042 33.1625 428.042 32.1362 428.229 31.286C428.899 28.242 431.277 25.8646 434.321 25.1941C435.171 25.0068 436.197 25.0068 438.25 25.0068V25.0068C440.303 25.0068 441.329 25.0068 442.179 25.1941C445.223 25.8646 447.601 28.242 448.271 31.286C448.458 32.1362 448.458 33.1625 448.458 35.2152V49.5178H428.042V35.2152Z" fill="#96E2D6"/>
<rect x="428.042" y="49.5178" width="20.4167" height="24.5109" fill="#96E2D6"/>
<rect x="428.042" y="74.0286" width="20.4167" height="24.5109" fill="#96E2D6"/>
<rect x="428.042" y="98.5396" width="20.4167" height="24.5109" fill="#96E2D6"/>
<rect x="428.042" y="123.051" width="20.4167" height="24.5109" fill="#96E2D6"/>
<rect x="428.042" y="147.562" width="20.4167" height="24.5109" fill="#96E2D6"/>
<path d="M428.042 172.073H448.458V186.375C448.458 188.428 448.458 189.454 448.271 190.304C447.601 193.348 445.223 195.726 442.179 196.396C441.329 196.583 440.303 196.583 438.25 196.583V196.583C436.197 196.583 435.171 196.583 434.321 196.396C431.277 195.726 428.899 193.348 428.229 190.304C428.042 189.454 428.042 188.428 428.042 186.375V172.073Z" fill="#96E2D6"/>
<path d="M482.653 84.2369C482.653 82.1843 482.653 81.1579 482.84 80.3077C483.511 77.2637 485.888 74.8863 488.932 74.2158C489.782 74.0286 490.808 74.0286 492.861 74.0286V74.0286C494.914 74.0286 495.94 74.0286 496.79 74.2158C499.834 74.8863 502.212 77.2637 502.882 80.3077C503.069 81.1579 503.069 82.1843 503.069 84.2369V98.5395H482.653V84.2369Z" fill="black"/>
<rect x="482.653" y="98.5396" width="20.4167" height="24.5109" fill="black"/>
<rect x="482.653" y="123.051" width="20.4167" height="24.5109" fill="black"/>
<rect x="482.653" y="147.562" width="20.4167" height="24.5109" fill="black"/>
<path d="M482.653 172.073H503.069V186.375C503.069 188.428 503.069 189.454 502.882 190.304C502.212 193.348 499.834 195.726 496.79 196.396C495.94 196.583 494.914 196.583 492.861 196.583V196.583C490.808 196.583 489.782 196.583 488.932 196.396C485.888 195.726 483.511 193.348 482.84 190.304C482.653 189.454 482.653 188.428 482.653 186.375V172.073Z" fill="black"/>
<path d="M537.264 10.7042C537.264 8.65155 537.264 7.62523 537.451 6.77498C538.122 3.73101 540.499 1.35361 543.543 0.683128C544.393 0.49585 545.42 0.49585 547.472 0.49585V0.49585C549.525 0.49585 550.551 0.49585 551.401 0.683128C554.445 1.35361 556.823 3.73101 557.493 6.77498C557.681 7.62523 557.681 8.65154 557.681 10.7042V25.0068H537.264V10.7042Z" fill="#92BFFF"/>
<rect x="537.264" y="25.0068" width="20.4167" height="24.5109" fill="#92BFFF"/>
<rect x="537.264" y="49.5178" width="20.4167" height="24.5109" fill="#92BFFF"/>
<rect x="537.264" y="74.0286" width="20.4167" height="24.5109" fill="#92BFFF"/>
<rect x="537.264" y="98.5396" width="20.4167" height="24.5109" fill="#92BFFF"/>
<rect x="537.264" y="123.051" width="20.4167" height="24.5109" fill="#92BFFF"/>
<rect x="537.264" y="147.562" width="20.4167" height="24.5109" fill="#92BFFF"/>
<path d="M537.264 172.073H557.681V186.375C557.681 188.428 557.681 189.454 557.493 190.304C556.823 193.348 554.445 195.726 551.401 196.396C550.551 196.583 549.525 196.583 547.472 196.583V196.583C545.42 196.583 544.393 196.583 543.543 196.396C540.499 195.726 538.122 193.348 537.451 190.304C537.264 189.454 537.264 188.428 537.264 186.375V172.073Z" fill="#92BFFF"/>
<path d="M591.875 133.259C591.875 131.206 591.875 130.18 592.062 129.33C592.733 126.286 595.11 123.908 598.154 123.238C599.004 123.051 600.031 123.051 602.083 123.051V123.051C604.136 123.051 605.162 123.051 606.013 123.238C609.057 123.908 611.434 126.286 612.104 129.33C612.292 130.18 612.292 131.206 612.292 133.259V147.561H591.875V133.259Z" fill="#AEC7ED"/>
<rect x="591.875" y="147.562" width="20.4167" height="24.5109" fill="#AEC7ED"/>
<path d="M591.875 172.073H612.292V186.375C612.292 188.428 612.292 189.454 612.104 190.304C611.434 193.348 609.057 195.726 606.013 196.396C605.162 196.583 604.136 196.583 602.083 196.583V196.583C600.031 196.583 599.004 196.583 598.154 196.396C595.11 195.726 592.733 193.348 592.062 190.304C591.875 189.454 591.875 188.428 591.875 186.375V172.073Z" fill="#AEC7ED"/>
<path d="M646.486 59.7262C646.486 57.6735 646.486 56.6472 646.673 55.797C647.344 52.753 649.721 50.3756 652.765 49.7051C653.616 49.5178 654.642 49.5178 656.694 49.5178V49.5178C658.747 49.5178 659.773 49.5178 660.624 49.7051C663.668 50.3756 666.045 52.753 666.716 55.797C666.903 56.6472 666.903 57.6735 666.903 59.7262V74.0288H646.486V59.7262Z" fill="#94E9B8"/>
<rect x="646.486" y="74.0286" width="20.4167" height="24.5109" fill="#94E9B8"/>
<rect x="646.486" y="98.5396" width="20.4167" height="24.5109" fill="#94E9B8"/>
<rect x="646.486" y="123.051" width="20.4167" height="24.5109" fill="#94E9B8"/>
<rect x="646.486" y="147.562" width="20.4167" height="24.5109" fill="#94E9B8"/>
<path d="M646.486 172.073H666.903V186.375C666.903 188.428 666.903 189.454 666.716 190.304C666.045 193.348 663.668 195.726 660.624 196.396C659.773 196.583 658.747 196.583 656.694 196.583V196.583C654.642 196.583 653.616 196.583 652.765 196.396C649.721 195.726 647.344 193.348 646.673 190.304C646.486 189.454 646.486 188.428 646.486 186.375V172.073Z" fill="#94E9B8"/>
<path d="M53.1547 209.788C53.0864 209.578 52.9962 209.391 52.8844 209.225C52.7746 209.057 52.6431 208.914 52.4898 208.796C52.3385 208.678 52.1666 208.588 51.974 208.526C51.7813 208.464 51.57 208.433 51.3401 208.433C50.9631 208.433 50.6202 208.53 50.3116 208.725C50.0029 208.92 49.7575 209.207 49.5752 209.586C49.3929 209.965 49.3017 210.43 49.3017 210.981C49.3017 211.532 49.3939 211.997 49.5783 212.376C49.7626 212.755 50.0123 213.042 50.3271 213.237C50.642 213.431 50.9962 213.529 51.3898 213.529C51.7544 213.529 52.0755 213.451 52.353 213.296C52.6327 213.138 52.8502 212.917 53.0056 212.631C53.163 212.343 53.2417 212.004 53.2417 211.615L53.4779 211.664H51.5638V210.981H53.9875V211.664C53.9875 212.188 53.8756 212.644 53.6519 213.032C53.4302 213.419 53.1236 213.719 52.7321 213.933C52.3427 214.144 51.8952 214.25 51.3898 214.25C50.8264 214.25 50.3313 214.117 49.9045 213.852C49.4799 213.587 49.1484 213.21 48.9102 212.721C48.6741 212.232 48.556 211.652 48.556 210.981C48.556 210.477 48.6233 210.025 48.758 209.623C48.8947 209.219 49.0873 208.875 49.3359 208.591C49.5845 208.308 49.8786 208.09 50.2184 207.939C50.5581 207.788 50.932 207.712 51.3401 207.712C51.6757 207.712 51.9885 207.763 52.2785 207.864C52.5706 207.964 52.8305 208.106 53.0584 208.29C53.2883 208.472 53.4799 208.691 53.6332 208.946C53.7865 209.198 53.8922 209.479 53.9502 209.788H53.1547ZM57.1468 214.262C56.7159 214.262 56.3378 214.159 56.0126 213.954C55.6895 213.749 55.4367 213.462 55.2544 213.094C55.0742 212.725 54.9841 212.294 54.9841 211.801C54.9841 211.304 55.0742 210.87 55.2544 210.499C55.4367 210.128 55.6895 209.84 56.0126 209.635C56.3378 209.43 56.7159 209.328 57.1468 209.328C57.5776 209.328 57.9546 209.43 58.2778 209.635C58.603 209.84 58.8557 210.128 59.036 210.499C59.2182 210.87 59.3094 211.304 59.3094 211.801C59.3094 212.294 59.2182 212.725 59.036 213.094C58.8557 213.462 58.603 213.749 58.2778 213.954C57.9546 214.159 57.5776 214.262 57.1468 214.262ZM57.1468 213.603C57.474 213.603 57.7433 213.519 57.9546 213.352C58.1659 213.184 58.3223 212.963 58.4238 212.69C58.5253 212.416 58.5761 212.12 58.5761 211.801C58.5761 211.482 58.5253 211.185 58.4238 210.909C58.3223 210.634 58.1659 210.411 57.9546 210.241C57.7433 210.071 57.474 209.986 57.1468 209.986C56.8195 209.986 56.5502 210.071 56.3389 210.241C56.1276 210.411 55.9712 210.634 55.8697 210.909C55.7682 211.185 55.7174 211.482 55.7174 211.801C55.7174 212.12 55.7682 212.416 55.8697 212.69C55.9712 212.963 56.1276 213.184 56.3389 213.352C56.5502 213.519 56.8195 213.603 57.1468 213.603ZM60.4288 214.163V209.39H61.1621V214.163H60.4288ZM60.8016 208.594C60.6587 208.594 60.5355 208.546 60.4319 208.448C60.3304 208.351 60.2796 208.234 60.2796 208.097C60.2796 207.961 60.3304 207.843 60.4319 207.746C60.5355 207.649 60.6587 207.6 60.8016 207.6C60.9446 207.6 61.0668 207.649 61.1683 207.746C61.2719 207.843 61.3237 207.961 61.3237 208.097C61.3237 208.234 61.2719 208.351 61.1683 208.448C61.0668 208.546 60.9446 208.594 60.8016 208.594ZM63.2385 207.799V214.163H62.5052V207.799H63.2385Z" fill="black" fill-opacity="0.4"/>
<path d="M104.836 209.39C104.799 209.075 104.648 208.831 104.383 208.657C104.118 208.483 103.792 208.396 103.407 208.396C103.125 208.396 102.879 208.441 102.668 208.532C102.458 208.623 102.295 208.749 102.177 208.908C102.061 209.068 102.003 209.249 102.003 209.452C102.003 209.622 102.043 209.768 102.124 209.89C102.207 210.01 102.312 210.111 102.441 210.192C102.569 210.27 102.704 210.336 102.845 210.387C102.986 210.437 103.115 210.477 103.233 210.508L103.879 210.682C104.045 210.726 104.23 210.786 104.433 210.863C104.638 210.939 104.833 211.044 105.02 211.177C105.208 211.307 105.364 211.475 105.486 211.68C105.608 211.885 105.669 212.137 105.669 212.435C105.669 212.779 105.579 213.09 105.399 213.367C105.221 213.645 104.96 213.865 104.616 214.029C104.274 214.193 103.859 214.274 103.37 214.274C102.914 214.274 102.52 214.201 102.186 214.054C101.855 213.907 101.594 213.702 101.403 213.439C101.214 213.176 101.108 212.87 101.083 212.522H101.878C101.899 212.762 101.98 212.961 102.121 213.119C102.264 213.274 102.444 213.39 102.661 213.467C102.881 213.541 103.117 213.578 103.37 213.578C103.664 213.578 103.928 213.531 104.162 213.436C104.396 213.338 104.582 213.203 104.718 213.032C104.855 212.858 104.923 212.655 104.923 212.423C104.923 212.211 104.864 212.039 104.746 211.907C104.628 211.774 104.473 211.666 104.28 211.584C104.088 211.501 103.879 211.428 103.656 211.366L102.873 211.142C102.376 210.999 101.982 210.795 101.692 210.53C101.402 210.265 101.257 209.918 101.257 209.489C101.257 209.133 101.353 208.822 101.546 208.557C101.741 208.29 102.002 208.083 102.329 207.936C102.658 207.787 103.026 207.712 103.432 207.712C103.842 207.712 104.207 207.785 104.526 207.933C104.845 208.078 105.097 208.276 105.284 208.529C105.472 208.782 105.572 209.069 105.582 209.39H104.836ZM107.57 211.292V214.163H106.837V207.799H107.57V210.136H107.632C107.744 209.889 107.912 209.693 108.136 209.548C108.361 209.401 108.662 209.328 109.037 209.328C109.362 209.328 109.647 209.393 109.891 209.523C110.136 209.652 110.325 209.85 110.46 210.117C110.597 210.382 110.665 210.72 110.665 211.13V214.163H109.932V211.18C109.932 210.801 109.833 210.507 109.636 210.3C109.442 210.091 109.171 209.986 108.825 209.986C108.585 209.986 108.37 210.037 108.179 210.139C107.991 210.24 107.841 210.388 107.732 210.583C107.624 210.778 107.57 211.014 107.57 211.292ZM114.008 214.262C113.548 214.262 113.151 214.161 112.817 213.958C112.486 213.752 112.23 213.467 112.05 213.1C111.872 212.731 111.783 212.302 111.783 211.814C111.783 211.325 111.872 210.894 112.05 210.521C112.23 210.146 112.481 209.854 112.802 209.645C113.125 209.433 113.502 209.328 113.933 209.328C114.182 209.328 114.427 209.369 114.669 209.452C114.912 209.535 115.132 209.67 115.331 209.856C115.53 210.04 115.689 210.285 115.807 210.589C115.925 210.894 115.984 211.269 115.984 211.714V212.025H112.305V211.391H115.238C115.238 211.122 115.184 210.881 115.076 210.67C114.971 210.459 114.82 210.292 114.623 210.17C114.428 210.048 114.198 209.986 113.933 209.986C113.641 209.986 113.388 210.059 113.175 210.204C112.963 210.347 112.801 210.533 112.687 210.763C112.573 210.993 112.516 211.24 112.516 211.503V211.925C112.516 212.286 112.578 212.591 112.702 212.842C112.829 213.091 113.004 213.28 113.228 213.411C113.451 213.539 113.711 213.603 114.008 213.603C114.2 213.603 114.374 213.576 114.53 213.523C114.687 213.467 114.823 213.384 114.937 213.274C115.051 213.162 115.139 213.023 115.201 212.858L115.909 213.056C115.835 213.297 115.709 213.508 115.533 213.69C115.357 213.871 115.14 214.011 114.881 214.113C114.622 214.212 114.331 214.262 114.008 214.262ZM117.833 207.799V214.163H117.099V207.799H117.833ZM119.909 207.799V214.163H119.176V207.799H119.909Z" fill="black" fill-opacity="0.4"/>
<path d="M154.891 214.163H154.083L156.42 207.799H157.215L159.552 214.163H158.744L156.843 208.806H156.793L154.891 214.163ZM155.19 211.677H158.446V212.36H155.19V211.677ZM161.177 207.799V214.163H160.444V207.799H161.177ZM163.254 207.799V214.163H162.52V207.799H163.254ZM164.597 214.163V209.39H165.33V214.163H164.597ZM164.97 208.594C164.827 208.594 164.703 208.546 164.6 208.448C164.498 208.351 164.448 208.234 164.448 208.097C164.448 207.961 164.498 207.843 164.6 207.746C164.703 207.649 164.827 207.6 164.97 207.6C165.112 207.6 165.235 207.649 165.336 207.746C165.44 207.843 165.492 207.961 165.492 208.097C165.492 208.234 165.44 208.351 165.336 208.448C165.235 208.546 165.112 208.594 164.97 208.594ZM168.674 214.262C168.214 214.262 167.818 214.161 167.484 213.958C167.153 213.752 166.897 213.467 166.717 213.1C166.538 212.731 166.449 212.302 166.449 211.814C166.449 211.325 166.538 210.894 166.717 210.521C166.897 210.146 167.147 209.854 167.469 209.645C167.792 209.433 168.169 209.328 168.6 209.328C168.848 209.328 169.094 209.369 169.336 209.452C169.578 209.535 169.799 209.67 169.998 209.856C170.197 210.04 170.355 210.285 170.473 210.589C170.591 210.894 170.65 211.269 170.65 211.714V212.025H166.971V211.391H169.905C169.905 211.122 169.851 210.881 169.743 210.67C169.637 210.459 169.486 210.292 169.289 210.17C169.095 210.048 168.865 209.986 168.6 209.986C168.308 209.986 168.055 210.059 167.841 210.204C167.63 210.347 167.468 210.533 167.354 210.763C167.24 210.993 167.183 211.24 167.183 211.503V211.925C167.183 212.286 167.245 212.591 167.369 212.842C167.495 213.091 167.671 213.28 167.894 213.411C168.118 213.539 168.378 213.603 168.674 213.603C168.867 213.603 169.041 213.576 169.196 213.523C169.354 213.467 169.489 213.384 169.603 213.274C169.717 213.162 169.805 213.023 169.867 212.858L170.576 213.056C170.501 213.297 170.376 213.508 170.2 213.69C170.024 213.871 169.806 214.011 169.547 214.113C169.288 214.212 168.997 214.262 168.674 214.262ZM173.568 214.262C173.17 214.262 172.819 214.162 172.515 213.961C172.21 213.758 171.972 213.472 171.8 213.103C171.628 212.732 171.542 212.294 171.542 211.789C171.542 211.287 171.628 210.852 171.8 210.484C171.972 210.115 172.211 209.83 172.518 209.629C172.824 209.428 173.179 209.328 173.581 209.328C173.891 209.328 174.137 209.38 174.317 209.483C174.499 209.585 174.638 209.701 174.733 209.831C174.831 209.96 174.906 210.065 174.96 210.148H175.022V207.799H175.756V214.163H175.047V213.429H174.96C174.906 213.516 174.83 213.626 174.73 213.759C174.631 213.889 174.489 214.006 174.304 214.11C174.12 214.211 173.875 214.262 173.568 214.262ZM173.668 213.603C173.962 213.603 174.21 213.527 174.413 213.373C174.616 213.218 174.771 213.004 174.876 212.73C174.982 212.455 175.035 212.137 175.035 211.776C175.035 211.42 174.983 211.108 174.879 210.841C174.776 210.572 174.622 210.362 174.419 210.213C174.216 210.062 173.966 209.986 173.668 209.986C173.357 209.986 173.098 210.066 172.891 210.226C172.686 210.383 172.531 210.598 172.428 210.869C172.326 211.138 172.275 211.441 172.275 211.776C172.275 212.116 172.327 212.425 172.431 212.702C172.536 212.978 172.692 213.197 172.897 213.361C173.104 213.523 173.361 213.603 173.668 213.603Z" fill="black" fill-opacity="0.4"/>
<path d="M210.064 208.483V207.799H214.837V208.483H212.836V214.163H212.065V208.483H210.064ZM217.173 214.262C216.742 214.262 216.364 214.159 216.039 213.954C215.716 213.749 215.463 213.462 215.281 213.094C215.101 212.725 215.011 212.294 215.011 211.801C215.011 211.304 215.101 210.87 215.281 210.499C215.463 210.128 215.716 209.84 216.039 209.635C216.364 209.43 216.742 209.328 217.173 209.328C217.604 209.328 217.981 209.43 218.304 209.635C218.63 209.84 218.882 210.128 219.063 210.499C219.245 210.87 219.336 211.304 219.336 211.801C219.336 212.294 219.245 212.725 219.063 213.094C218.882 213.462 218.63 213.749 218.304 213.954C217.981 214.159 217.604 214.262 217.173 214.262ZM217.173 213.603C217.501 213.603 217.77 213.519 217.981 213.352C218.193 213.184 218.349 212.963 218.45 212.69C218.552 212.416 218.603 212.12 218.603 211.801C218.603 211.482 218.552 211.185 218.45 210.909C218.349 210.634 218.193 210.411 217.981 210.241C217.77 210.071 217.501 209.986 217.173 209.986C216.846 209.986 216.577 210.071 216.365 210.241C216.154 210.411 215.998 210.634 215.896 210.909C215.795 211.185 215.744 211.482 215.744 211.801C215.744 212.12 215.795 212.416 215.896 212.69C215.998 212.963 216.154 213.184 216.365 213.352C216.577 213.519 216.846 213.603 217.173 213.603ZM222.531 209.39V210.011H220.058V209.39H222.531ZM220.779 208.246H221.512V212.795C221.512 213.003 221.542 213.158 221.602 213.261C221.664 213.363 221.743 213.431 221.838 213.467C221.935 213.5 222.038 213.516 222.146 213.516C222.226 213.516 222.293 213.512 222.345 213.504C222.396 213.494 222.438 213.485 222.469 213.479L222.618 214.138C222.568 214.156 222.499 214.175 222.41 214.194C222.321 214.214 222.208 214.225 222.071 214.225C221.864 214.225 221.661 214.18 221.462 214.091C221.265 214.002 221.102 213.866 220.971 213.684C220.843 213.502 220.779 213.272 220.779 212.994V208.246ZM225.039 214.274C224.736 214.274 224.462 214.217 224.215 214.104C223.969 213.988 223.773 213.821 223.628 213.603C223.483 213.384 223.41 213.119 223.41 212.808C223.41 212.534 223.464 212.313 223.572 212.143C223.68 211.971 223.824 211.836 224.004 211.739C224.184 211.642 224.383 211.569 224.6 211.521C224.82 211.472 225.041 211.432 225.262 211.403C225.552 211.366 225.787 211.338 225.968 211.319C226.15 211.299 226.282 211.265 226.365 211.217C226.45 211.169 226.493 211.086 226.493 210.968V210.943C226.493 210.637 226.409 210.399 226.241 210.229C226.075 210.059 225.824 209.974 225.486 209.974C225.136 209.974 224.861 210.051 224.663 210.204C224.464 210.357 224.324 210.521 224.243 210.695L223.547 210.446C223.671 210.156 223.837 209.931 224.044 209.769C224.253 209.605 224.481 209.491 224.728 209.427C224.976 209.361 225.221 209.328 225.461 209.328C225.614 209.328 225.79 209.346 225.989 209.384C226.19 209.419 226.384 209.492 226.57 209.604C226.759 209.716 226.915 209.885 227.04 210.111C227.164 210.337 227.226 210.639 227.226 211.018V214.163H226.493V213.516H226.455C226.406 213.62 226.323 213.731 226.207 213.849C226.091 213.967 225.937 214.067 225.744 214.15C225.551 214.233 225.316 214.274 225.039 214.274ZM225.15 213.616C225.44 213.616 225.685 213.559 225.884 213.445C226.085 213.331 226.236 213.184 226.337 213.004C226.441 212.823 226.493 212.634 226.493 212.435V211.764C226.462 211.801 226.393 211.835 226.288 211.866C226.184 211.895 226.064 211.921 225.927 211.944C225.793 211.965 225.661 211.983 225.533 212C225.406 212.014 225.304 212.027 225.225 212.037C225.034 212.062 224.856 212.102 224.691 212.158C224.527 212.212 224.394 212.294 224.293 212.404C224.193 212.512 224.144 212.659 224.144 212.845C224.144 213.1 224.238 213.293 224.426 213.423C224.617 213.552 224.858 213.616 225.15 213.616ZM229.298 207.799V214.163H228.564V207.799H229.298Z" fill="black" fill-opacity="0.4"/>
<path d="M267.136 214.163V213.603L270.566 208.483H267.099V207.799H271.486V208.358L268.056 213.479H271.523V214.163H267.136ZM274.718 214.262C274.258 214.262 273.861 214.161 273.528 213.958C273.196 213.752 272.94 213.467 272.76 213.1C272.582 212.731 272.493 212.302 272.493 211.814C272.493 211.325 272.582 210.894 272.76 210.521C272.94 210.146 273.191 209.854 273.512 209.645C273.835 209.433 274.212 209.328 274.643 209.328C274.892 209.328 275.137 209.369 275.379 209.452C275.622 209.535 275.842 209.67 276.041 209.856C276.24 210.04 276.399 210.285 276.517 210.589C276.635 210.894 276.694 211.269 276.694 211.714V212.025H273.015V211.391H275.948C275.948 211.122 275.894 210.881 275.787 210.67C275.681 210.459 275.53 210.292 275.333 210.17C275.138 210.048 274.908 209.986 274.643 209.986C274.351 209.986 274.098 210.059 273.885 210.204C273.674 210.347 273.511 210.533 273.397 210.763C273.283 210.993 273.226 211.24 273.226 211.503V211.925C273.226 212.286 273.288 212.591 273.413 212.842C273.539 213.091 273.714 213.28 273.938 213.411C274.161 213.539 274.421 213.603 274.718 213.603C274.91 213.603 275.084 213.576 275.24 213.523C275.397 213.467 275.533 213.384 275.647 213.274C275.761 213.162 275.849 213.023 275.911 212.858L276.619 213.056C276.545 213.297 276.419 213.508 276.243 213.69C276.067 213.871 275.85 214.011 275.591 214.113C275.332 214.212 275.041 214.262 274.718 214.262ZM278.543 211.292V214.163H277.809V209.39H278.518V210.136H278.58C278.692 209.893 278.862 209.699 279.09 209.551C279.317 209.402 279.612 209.328 279.972 209.328C280.295 209.328 280.578 209.394 280.82 209.527C281.063 209.657 281.251 209.856 281.386 210.123C281.52 210.388 281.588 210.724 281.588 211.13V214.163H280.854V211.18C280.854 210.805 280.757 210.513 280.562 210.303C280.368 210.092 280.1 209.986 279.761 209.986C279.527 209.986 279.317 210.037 279.133 210.139C278.951 210.24 278.807 210.388 278.701 210.583C278.595 210.778 278.543 211.014 278.543 211.292Z" fill="black" fill-opacity="0.4"/>
<path d="M316.87 214.163V207.799H319.02C319.519 207.799 319.927 207.889 320.244 208.069C320.563 208.247 320.8 208.489 320.953 208.793C321.106 209.098 321.183 209.438 321.183 209.812C321.183 210.187 321.106 210.528 320.953 210.835C320.802 211.141 320.568 211.386 320.251 211.568C319.934 211.748 319.528 211.838 319.033 211.838H317.491V211.155H319.008C319.349 211.155 319.624 211.096 319.831 210.978C320.038 210.86 320.188 210.7 320.282 210.499C320.377 210.296 320.425 210.067 320.425 209.812C320.425 209.558 320.377 209.33 320.282 209.129C320.188 208.928 320.037 208.77 319.828 208.657C319.619 208.541 319.341 208.483 318.995 208.483H317.641V214.163H316.87ZM324.212 214.262C323.781 214.262 323.403 214.159 323.078 213.954C322.755 213.749 322.502 213.462 322.32 213.094C322.14 212.725 322.05 212.294 322.05 211.801C322.05 211.304 322.14 210.87 322.32 210.499C322.502 210.128 322.755 209.84 323.078 209.635C323.403 209.43 323.781 209.328 324.212 209.328C324.643 209.328 325.02 209.43 325.343 209.635C325.669 209.84 325.921 210.128 326.102 210.499C326.284 210.87 326.375 211.304 326.375 211.801C326.375 212.294 326.284 212.725 326.102 213.094C325.921 213.462 325.669 213.749 325.343 213.954C325.02 214.159 324.643 214.262 324.212 214.262ZM324.212 213.603C324.54 213.603 324.809 213.519 325.02 213.352C325.232 213.184 325.388 212.963 325.489 212.69C325.591 212.416 325.642 212.12 325.642 211.801C325.642 211.482 325.591 211.185 325.489 210.909C325.388 210.634 325.232 210.411 325.02 210.241C324.809 210.071 324.54 209.986 324.212 209.986C323.885 209.986 323.616 210.071 323.404 210.241C323.193 210.411 323.037 210.634 322.935 210.909C322.834 211.185 322.783 211.482 322.783 211.801C322.783 212.12 322.834 212.416 322.935 212.69C323.037 212.963 323.193 213.184 323.404 213.352C323.616 213.519 323.885 213.603 324.212 213.603ZM328.413 214.163L326.959 209.39H327.73L328.761 213.044H328.811L329.83 209.39H330.613L331.62 213.032H331.67L332.701 209.39H333.472L332.018 214.163H331.297L330.253 210.496H330.178L329.134 214.163H328.413ZM336.28 214.262C335.82 214.262 335.424 214.161 335.09 213.958C334.759 213.752 334.503 213.467 334.323 213.1C334.144 212.731 334.055 212.302 334.055 211.814C334.055 211.325 334.144 210.894 334.323 210.521C334.503 210.146 334.753 209.854 335.074 209.645C335.398 209.433 335.775 209.328 336.206 209.328C336.454 209.328 336.7 209.369 336.942 209.452C337.184 209.535 337.405 209.67 337.604 209.856C337.803 210.04 337.961 210.285 338.079 210.589C338.197 210.894 338.256 211.269 338.256 211.714V212.025H334.577V211.391H337.511C337.511 211.122 337.457 210.881 337.349 210.67C337.243 210.459 337.092 210.292 336.895 210.17C336.701 210.048 336.471 209.986 336.206 209.986C335.913 209.986 335.661 210.059 335.447 210.204C335.236 210.347 335.073 210.533 334.96 210.763C334.846 210.993 334.789 211.24 334.789 211.503V211.925C334.789 212.286 334.851 212.591 334.975 212.842C335.101 213.091 335.276 213.28 335.5 213.411C335.724 213.539 335.984 213.603 336.28 213.603C336.473 213.603 336.647 213.576 336.802 213.523C336.96 213.467 337.095 213.384 337.209 213.274C337.323 213.162 337.411 213.023 337.473 212.858L338.182 213.056C338.107 213.297 337.982 213.508 337.806 213.69C337.63 213.871 337.412 214.011 337.153 214.113C336.894 214.212 336.603 214.262 336.28 214.262ZM339.372 214.163V209.39H340.08V210.111H340.13C340.217 209.875 340.374 209.683 340.602 209.536C340.83 209.389 341.087 209.315 341.373 209.315C341.427 209.315 341.494 209.316 341.575 209.318C341.656 209.32 341.717 209.324 341.758 209.328V210.073C341.733 210.067 341.676 210.058 341.587 210.045C341.5 210.031 341.408 210.024 341.311 210.024C341.079 210.024 340.872 210.072 340.689 210.17C340.509 210.265 340.366 210.398 340.26 210.568C340.157 210.735 340.105 210.927 340.105 211.142V214.163H339.372Z" fill="black" fill-opacity="0.4"/>
<path d="M379.232 207.799H380.003V212.348C380.003 212.754 379.928 213.099 379.779 213.383C379.63 213.666 379.42 213.882 379.148 214.029C378.877 214.176 378.557 214.25 378.188 214.25C377.84 214.25 377.53 214.186 377.259 214.06C376.988 213.932 376.774 213.749 376.619 213.513C376.464 213.277 376.386 212.996 376.386 212.671H377.144C377.144 212.851 377.189 213.009 377.278 213.143C377.369 213.276 377.493 213.38 377.65 213.454C377.808 213.529 377.987 213.566 378.188 213.566C378.41 213.566 378.598 213.519 378.754 213.426C378.909 213.333 379.027 213.196 379.108 213.016C379.191 212.834 379.232 212.611 379.232 212.348V207.799ZM383.386 214.262C382.956 214.262 382.578 214.159 382.252 213.954C381.929 213.749 381.676 213.462 381.494 213.094C381.314 212.725 381.224 212.294 381.224 211.801C381.224 211.304 381.314 210.87 381.494 210.499C381.676 210.128 381.929 209.84 382.252 209.635C382.578 209.43 382.956 209.328 383.386 209.328C383.817 209.328 384.194 209.43 384.518 209.635C384.843 209.84 385.095 210.128 385.276 210.499C385.458 210.87 385.549 211.304 385.549 211.801C385.549 212.294 385.458 212.725 385.276 213.094C385.095 213.462 384.843 213.749 384.518 213.954C384.194 214.159 383.817 214.262 383.386 214.262ZM383.386 213.603C383.714 213.603 383.983 213.519 384.194 213.352C384.406 213.184 384.562 212.963 384.664 212.69C384.765 212.416 384.816 212.12 384.816 211.801C384.816 211.482 384.765 211.185 384.664 210.909C384.562 210.634 384.406 210.411 384.194 210.241C383.983 210.071 383.714 209.986 383.386 209.986C383.059 209.986 382.79 210.071 382.579 210.241C382.367 210.411 382.211 210.634 382.109 210.909C382.008 211.185 381.957 211.482 381.957 211.801C381.957 212.12 382.008 212.416 382.109 212.69C382.211 212.963 382.367 213.184 382.579 213.352C382.79 213.519 383.059 213.603 383.386 213.603ZM387.402 207.799V214.163H386.668V207.799H387.402ZM390.821 209.39V210.011H388.347V209.39H390.821ZM389.068 208.246H389.801V212.795C389.801 213.003 389.831 213.158 389.891 213.261C389.954 213.363 390.032 213.431 390.128 213.467C390.225 213.5 390.328 213.516 390.435 213.516C390.516 213.516 390.582 213.512 390.634 213.504C390.686 213.494 390.727 213.485 390.758 213.479L390.908 214.138C390.858 214.156 390.788 214.175 390.699 214.194C390.61 214.214 390.497 214.225 390.361 214.225C390.154 214.225 389.951 214.18 389.752 214.091C389.555 214.002 389.391 213.866 389.261 213.684C389.132 213.502 389.068 213.272 389.068 212.994V208.246Z" fill="black" fill-opacity="0.4"/>
<path d="M430.198 214.163V207.799H430.969V210.633H434.362V207.799H435.132V214.163H434.362V211.316H430.969V214.163H430.198ZM436.675 214.163V207.799H438.825C439.324 207.799 439.733 207.889 440.049 208.069C440.369 208.247 440.605 208.489 440.758 208.793C440.911 209.098 440.988 209.438 440.988 209.812C440.988 210.187 440.911 210.528 440.758 210.835C440.607 211.141 440.373 211.386 440.056 211.568C439.739 211.748 439.333 211.838 438.838 211.838H437.296V211.155H438.813C439.155 211.155 439.429 211.096 439.636 210.978C439.843 210.86 439.994 210.7 440.087 210.499C440.182 210.296 440.23 210.067 440.23 209.812C440.23 209.558 440.182 209.33 440.087 209.129C439.994 208.928 439.842 208.77 439.633 208.657C439.424 208.541 439.146 208.483 438.8 208.483H437.446V214.163H436.675ZM441.881 208.483V207.799H446.654V208.483H444.653V214.163H443.882V208.483H441.881Z" fill="black" fill-opacity="0.4"/>
<path d="M485.847 214.163V207.799H486.618V210.956H486.692L489.551 207.799H490.558L487.886 210.67L490.558 214.163H489.626L487.413 211.205L486.618 212.099V214.163H485.847ZM493.107 214.262C492.647 214.262 492.25 214.161 491.916 213.958C491.585 213.752 491.329 213.467 491.149 213.1C490.971 212.731 490.882 212.302 490.882 211.814C490.882 211.325 490.971 210.894 491.149 210.521C491.329 210.146 491.58 209.854 491.901 209.645C492.224 209.433 492.601 209.328 493.032 209.328C493.281 209.328 493.526 209.369 493.768 209.452C494.011 209.535 494.231 209.67 494.43 209.856C494.629 210.04 494.788 210.285 494.906 210.589C495.024 210.894 495.083 211.269 495.083 211.714V212.025H491.404V211.391H494.337C494.337 211.122 494.283 210.881 494.175 210.67C494.07 210.459 493.919 210.292 493.722 210.17C493.527 210.048 493.297 209.986 493.032 209.986C492.74 209.986 492.487 210.059 492.274 210.204C492.063 210.347 491.9 210.533 491.786 210.763C491.672 210.993 491.615 211.24 491.615 211.503V211.925C491.615 212.286 491.677 212.591 491.802 212.842C491.928 213.091 492.103 213.28 492.327 213.411C492.55 213.539 492.81 213.603 493.107 213.603C493.299 213.603 493.473 213.576 493.629 213.523C493.786 213.467 493.922 213.384 494.036 213.274C494.15 213.162 494.238 213.023 494.3 212.858L495.008 213.056C494.934 213.297 494.808 213.508 494.632 213.69C494.456 213.871 494.239 214.011 493.98 214.113C493.721 214.212 493.43 214.262 493.107 214.262ZM496.932 211.292V214.163H496.198V209.39H496.907V210.136H496.969C497.081 209.893 497.251 209.699 497.478 209.551C497.706 209.402 498 209.328 498.361 209.328C498.684 209.328 498.967 209.394 499.209 209.527C499.452 209.657 499.64 209.856 499.775 210.123C499.909 210.388 499.977 210.724 499.977 211.13V214.163H499.243V211.18C499.243 210.805 499.146 210.513 498.951 210.303C498.757 210.092 498.489 209.986 498.15 209.986C497.916 209.986 497.706 210.037 497.522 210.139C497.34 210.24 497.196 210.388 497.09 210.583C496.984 210.778 496.932 211.014 496.932 211.292Z" fill="black" fill-opacity="0.4"/>
<path d="M536.958 210.981C536.958 211.652 536.837 212.232 536.595 212.721C536.352 213.21 536.02 213.587 535.597 213.852C535.175 214.117 534.692 214.25 534.149 214.25C533.606 214.25 533.124 214.117 532.701 213.852C532.279 213.587 531.946 213.21 531.704 212.721C531.461 212.232 531.34 211.652 531.34 210.981C531.34 210.31 531.461 209.73 531.704 209.241C531.946 208.752 532.279 208.375 532.701 208.11C533.124 207.845 533.606 207.712 534.149 207.712C534.692 207.712 535.175 207.845 535.597 208.11C536.02 208.375 536.352 208.752 536.595 209.241C536.837 209.73 536.958 210.31 536.958 210.981ZM536.212 210.981C536.212 210.43 536.12 209.965 535.936 209.586C535.754 209.207 535.506 208.92 535.193 208.725C534.882 208.53 534.534 208.433 534.149 208.433C533.764 208.433 533.415 208.53 533.102 208.725C532.791 208.92 532.544 209.207 532.359 209.586C532.177 209.965 532.086 210.43 532.086 210.981C532.086 211.532 532.177 211.997 532.359 212.376C532.544 212.755 532.791 213.042 533.102 213.237C533.415 213.431 533.764 213.529 534.149 213.529C534.534 213.529 534.882 213.431 535.193 213.237C535.506 213.042 535.754 212.755 535.936 212.376C536.12 211.997 536.212 211.532 536.212 210.981ZM538.154 214.163V209.39H538.888V214.163H538.154ZM538.527 208.594C538.384 208.594 538.261 208.546 538.158 208.448C538.056 208.351 538.005 208.234 538.005 208.097C538.005 207.961 538.056 207.843 538.158 207.746C538.261 207.649 538.384 207.6 538.527 207.6C538.67 207.6 538.792 207.649 538.894 207.746C538.997 207.843 539.049 207.961 539.049 208.097C539.049 208.234 538.997 208.351 538.894 208.448C538.792 208.546 538.67 208.594 538.527 208.594ZM540.964 207.799V214.163H540.231V207.799H540.964ZM544.868 214.163V207.799H545.601V210.148H545.663C545.717 210.065 545.791 209.96 545.887 209.831C545.984 209.701 546.123 209.585 546.303 209.483C546.485 209.38 546.732 209.328 547.043 209.328C547.445 209.328 547.799 209.428 548.105 209.629C548.412 209.83 548.651 210.115 548.823 210.484C548.995 210.852 549.081 211.287 549.081 211.789C549.081 212.294 548.995 212.732 548.823 213.103C548.651 213.472 548.413 213.758 548.108 213.961C547.804 214.162 547.453 214.262 547.055 214.262C546.749 214.262 546.503 214.211 546.319 214.11C546.134 214.006 545.992 213.889 545.893 213.759C545.794 213.626 545.717 213.516 545.663 213.429H545.576V214.163H544.868ZM545.588 211.776C545.588 212.137 545.641 212.455 545.747 212.73C545.853 213.004 546.007 213.218 546.21 213.373C546.413 213.527 546.662 213.603 546.956 213.603C547.262 213.603 547.518 213.523 547.723 213.361C547.93 213.197 548.086 212.978 548.189 212.702C548.295 212.425 548.348 212.116 548.348 211.776C548.348 211.441 548.296 211.138 548.192 210.869C548.091 210.598 547.937 210.383 547.729 210.226C547.524 210.066 547.266 209.986 546.956 209.986C546.657 209.986 546.407 210.062 546.204 210.213C546.001 210.362 545.847 210.572 545.744 210.841C545.64 211.108 545.588 211.42 545.588 211.776ZM551.607 214.274C551.305 214.274 551.03 214.217 550.784 214.104C550.537 213.988 550.342 213.821 550.197 213.603C550.052 213.384 549.979 213.119 549.979 212.808C549.979 212.534 550.033 212.313 550.141 212.143C550.248 211.971 550.392 211.836 550.572 211.739C550.753 211.642 550.952 211.569 551.169 211.521C551.389 211.472 551.609 211.432 551.831 211.403C552.121 211.366 552.356 211.338 552.536 211.319C552.719 211.299 552.851 211.265 552.934 211.217C553.019 211.169 553.061 211.086 553.061 210.968V210.943C553.061 210.637 552.978 210.399 552.81 210.229C552.644 210.059 552.392 209.974 552.055 209.974C551.705 209.974 551.43 210.051 551.231 210.204C551.032 210.357 550.893 210.521 550.812 210.695L550.116 210.446C550.24 210.156 550.406 209.931 550.613 209.769C550.822 209.605 551.05 209.491 551.296 209.427C551.545 209.361 551.79 209.328 552.03 209.328C552.183 209.328 552.359 209.346 552.558 209.384C552.759 209.419 552.953 209.492 553.139 209.604C553.328 209.716 553.484 209.885 553.608 210.111C553.733 210.337 553.795 210.639 553.795 211.018V214.163H553.061V213.516H553.024C552.974 213.62 552.892 213.731 552.776 213.849C552.66 213.967 552.505 214.067 552.313 214.15C552.12 214.233 551.885 214.274 551.607 214.274ZM551.719 213.616C552.009 213.616 552.254 213.559 552.452 213.445C552.653 213.331 552.805 213.184 552.906 213.004C553.01 212.823 553.061 212.634 553.061 212.435V211.764C553.03 211.801 552.962 211.835 552.856 211.866C552.753 211.895 552.633 211.921 552.496 211.944C552.361 211.965 552.23 211.983 552.101 212C551.975 212.014 551.872 212.027 551.794 212.037C551.603 212.062 551.425 212.102 551.259 212.158C551.096 212.212 550.963 212.294 550.861 212.404C550.762 212.512 550.712 212.659 550.712 212.845C550.712 213.1 550.807 213.293 550.995 213.423C551.186 213.552 551.427 213.616 551.719 213.616ZM558.514 210.459L557.855 210.645C557.814 210.535 557.753 210.429 557.672 210.325C557.593 210.22 557.485 210.133 557.349 210.064C557.212 209.996 557.037 209.962 556.823 209.962C556.531 209.962 556.288 210.029 556.093 210.164C555.901 210.296 555.804 210.465 555.804 210.67C555.804 210.852 555.871 210.996 556.003 211.102C556.136 211.208 556.343 211.296 556.625 211.366L557.333 211.54C557.76 211.644 558.078 211.802 558.287 212.015C558.496 212.227 558.601 212.499 558.601 212.833C558.601 213.106 558.522 213.351 558.365 213.566C558.209 213.781 557.992 213.951 557.712 214.076C557.433 214.2 557.107 214.262 556.736 214.262C556.25 214.262 555.847 214.156 555.528 213.945C555.209 213.734 555.007 213.425 554.922 213.019L555.618 212.845C555.684 213.102 555.809 213.295 555.994 213.423C556.18 213.552 556.424 213.616 556.724 213.616C557.066 213.616 557.337 213.543 557.538 213.398C557.741 213.251 557.843 213.075 557.843 212.87C557.843 212.704 557.785 212.565 557.669 212.454C557.553 212.34 557.375 212.255 557.134 212.199L556.339 212.012C555.902 211.909 555.581 211.748 555.376 211.531C555.173 211.311 555.071 211.037 555.071 210.707C555.071 210.438 555.147 210.2 555.298 209.993C555.451 209.786 555.659 209.623 555.922 209.505C556.188 209.387 556.488 209.328 556.823 209.328C557.296 209.328 557.667 209.431 557.936 209.638C558.207 209.846 558.4 210.119 558.514 210.459ZM561.706 214.262C561.246 214.262 560.849 214.161 560.516 213.958C560.184 213.752 559.928 213.467 559.748 213.1C559.57 212.731 559.481 212.302 559.481 211.814C559.481 211.325 559.57 210.894 559.748 210.521C559.928 210.146 560.179 209.854 560.5 209.645C560.823 209.433 561.2 209.328 561.631 209.328C561.88 209.328 562.125 209.369 562.368 209.452C562.61 209.535 562.831 209.67 563.029 209.856C563.228 210.04 563.387 210.285 563.505 210.589C563.623 210.894 563.682 211.269 563.682 211.714V212.025H560.003V211.391H562.936C562.936 211.122 562.882 210.881 562.775 210.67C562.669 210.459 562.518 210.292 562.321 210.17C562.126 210.048 561.896 209.986 561.631 209.986C561.339 209.986 561.086 210.059 560.873 210.204C560.662 210.347 560.499 210.533 560.385 210.763C560.271 210.993 560.214 211.24 560.214 211.503V211.925C560.214 212.286 560.276 212.591 560.401 212.842C560.527 213.091 560.702 213.28 560.926 213.411C561.15 213.539 561.41 213.603 561.706 213.603C561.898 213.603 562.072 213.576 562.228 213.523C562.385 213.467 562.521 213.384 562.635 213.274C562.749 213.162 562.837 213.023 562.899 212.858L563.607 213.056C563.533 213.297 563.407 213.508 563.231 213.69C563.055 213.871 562.838 214.011 562.579 214.113C562.32 214.212 562.029 214.262 561.706 214.262Z" fill="black" fill-opacity="0.4"/>
<path d="M591.222 209.39C591.185 209.075 591.034 208.831 590.769 208.657C590.504 208.483 590.178 208.396 589.793 208.396C589.511 208.396 589.265 208.441 589.054 208.532C588.844 208.623 588.681 208.749 588.563 208.908C588.447 209.068 588.389 209.249 588.389 209.452C588.389 209.622 588.429 209.768 588.51 209.89C588.593 210.01 588.698 210.111 588.827 210.192C588.955 210.27 589.09 210.336 589.231 210.387C589.372 210.437 589.501 210.477 589.619 210.508L590.265 210.682C590.431 210.726 590.615 210.786 590.818 210.863C591.024 210.939 591.219 211.044 591.406 211.177C591.594 211.307 591.75 211.475 591.872 211.68C591.994 211.885 592.055 212.137 592.055 212.435C592.055 212.779 591.965 213.09 591.785 213.367C591.607 213.645 591.346 213.865 591.002 214.029C590.66 214.193 590.245 214.274 589.756 214.274C589.3 214.274 588.905 214.201 588.572 214.054C588.24 213.907 587.979 213.702 587.789 213.439C587.6 213.176 587.494 212.87 587.469 212.522H588.264C588.285 212.762 588.366 212.961 588.507 213.119C588.65 213.274 588.83 213.39 589.047 213.467C589.267 213.541 589.503 213.578 589.756 213.578C590.05 213.578 590.314 213.531 590.548 213.436C590.782 213.338 590.968 213.203 591.104 213.032C591.241 212.858 591.309 212.655 591.309 212.423C591.309 212.211 591.25 212.039 591.132 211.907C591.014 211.774 590.859 211.666 590.666 211.584C590.474 211.501 590.265 211.428 590.042 211.366L589.259 211.142C588.761 210.999 588.368 210.795 588.078 210.53C587.788 210.265 587.643 209.918 587.643 209.489C587.643 209.133 587.739 208.822 587.932 208.557C588.127 208.29 588.388 208.083 588.715 207.936C589.044 207.787 589.412 207.712 589.818 207.712C590.228 207.712 590.593 207.785 590.912 207.933C591.231 208.078 591.483 208.276 591.67 208.529C591.858 208.782 591.958 209.069 591.968 209.39H591.222ZM595.298 209.39V210.011H592.825V209.39H595.298ZM593.546 208.246H594.279V212.795C594.279 213.003 594.309 213.158 594.369 213.261C594.431 213.363 594.51 213.431 594.605 213.467C594.703 213.5 594.805 213.516 594.913 213.516C594.994 213.516 595.06 213.512 595.112 213.504C595.164 213.494 595.205 213.485 595.236 213.479L595.385 214.138C595.336 214.156 595.266 214.175 595.177 214.194C595.088 214.214 594.975 214.225 594.838 214.225C594.631 214.225 594.428 214.18 594.229 214.091C594.033 214.002 593.869 213.866 593.738 213.684C593.61 213.502 593.546 213.272 593.546 212.994V208.246ZM597.806 214.274C597.503 214.274 597.229 214.217 596.982 214.104C596.736 213.988 596.54 213.821 596.395 213.603C596.25 213.384 596.178 213.119 596.178 212.808C596.178 212.534 596.232 212.313 596.339 212.143C596.447 211.971 596.591 211.836 596.771 211.739C596.951 211.642 597.15 211.569 597.368 211.521C597.587 211.472 597.808 211.432 598.03 211.403C598.32 211.366 598.555 211.338 598.735 211.319C598.917 211.299 599.05 211.265 599.133 211.217C599.218 211.169 599.26 211.086 599.26 210.968V210.943C599.26 210.637 599.176 210.399 599.008 210.229C598.843 210.059 598.591 209.974 598.253 209.974C597.903 209.974 597.629 210.051 597.43 210.204C597.231 210.357 597.091 210.521 597.01 210.695L596.314 210.446C596.439 210.156 596.604 209.931 596.812 209.769C597.021 209.605 597.249 209.491 597.495 209.427C597.744 209.361 597.988 209.328 598.228 209.328C598.382 209.328 598.558 209.346 598.757 209.384C598.958 209.419 599.151 209.492 599.338 209.604C599.526 209.716 599.683 209.885 599.807 210.111C599.931 210.337 599.993 210.639 599.993 211.018V214.163H599.26V213.516H599.223C599.173 213.62 599.09 213.731 598.974 213.849C598.858 213.967 598.704 214.067 598.511 214.15C598.319 214.233 598.083 214.274 597.806 214.274ZM597.918 213.616C598.208 213.616 598.452 213.559 598.651 213.445C598.852 213.331 599.003 213.184 599.105 213.004C599.208 212.823 599.26 212.634 599.26 212.435V211.764C599.229 211.801 599.161 211.835 599.055 211.866C598.951 211.895 598.831 211.921 598.695 211.944C598.56 211.965 598.428 211.983 598.3 212C598.174 212.014 598.071 212.027 597.992 212.037C597.802 212.062 597.624 212.102 597.458 212.158C597.294 212.212 597.162 212.294 597.06 212.404C596.961 212.512 596.911 212.659 596.911 212.845C596.911 213.1 597.005 213.293 597.194 213.423C597.384 213.552 597.626 213.616 597.918 213.616ZM601.332 214.163V209.39H602.04V210.111H602.09C602.177 209.875 602.334 209.683 602.562 209.536C602.79 209.389 603.047 209.315 603.333 209.315C603.387 209.315 603.454 209.316 603.535 209.318C603.616 209.32 603.677 209.324 603.718 209.328V210.073C603.693 210.067 603.636 210.058 603.547 210.045C603.46 210.031 603.368 210.024 603.271 210.024C603.039 210.024 602.832 210.072 602.649 210.17C602.469 210.265 602.326 210.398 602.22 210.568C602.117 210.735 602.065 210.927 602.065 211.142V214.163H601.332ZM612.517 210.981C612.517 211.652 612.396 212.232 612.154 212.721C611.911 213.21 611.579 213.587 611.156 213.852C610.734 214.117 610.251 214.25 609.708 214.25C609.165 214.25 608.683 214.117 608.26 213.852C607.838 213.587 607.505 213.21 607.263 212.721C607.02 212.232 606.899 211.652 606.899 210.981C606.899 210.31 607.02 209.73 607.263 209.241C607.505 208.752 607.838 208.375 608.26 208.11C608.683 207.845 609.165 207.712 609.708 207.712C610.251 207.712 610.734 207.845 611.156 208.11C611.579 208.375 611.911 208.752 612.154 209.241C612.396 209.73 612.517 210.31 612.517 210.981ZM611.771 210.981C611.771 210.43 611.679 209.965 611.495 209.586C611.313 209.207 611.065 208.92 610.752 208.725C610.441 208.53 610.093 208.433 609.708 208.433C609.323 208.433 608.974 208.53 608.661 208.725C608.35 208.92 608.103 209.207 607.918 209.586C607.736 209.965 607.645 210.43 607.645 210.981C607.645 211.532 607.736 211.997 607.918 212.376C608.103 212.755 608.35 213.042 608.661 213.237C608.974 213.431 609.323 213.529 609.708 213.529C610.093 213.529 610.441 213.431 610.752 213.237C611.065 213.042 611.313 212.755 611.495 212.376C611.679 211.997 611.771 211.532 611.771 210.981ZM613.713 214.163V209.39H614.447V214.163H613.713ZM614.086 208.594C613.943 208.594 613.82 208.546 613.717 208.448C613.615 208.351 613.564 208.234 613.564 208.097C613.564 207.961 613.615 207.843 613.717 207.746C613.82 207.649 613.943 207.6 614.086 207.6C614.229 207.6 614.351 207.649 614.453 207.746C614.557 207.843 614.608 207.961 614.608 208.097C614.608 208.234 614.557 208.351 614.453 208.448C614.351 208.546 614.229 208.594 614.086 208.594ZM616.523 207.799V214.163H615.79V207.799H616.523Z" fill="black" fill-opacity="0.4"/>
<path d="M639.784 208.483V207.799H644.556V208.483H642.555V214.163H641.785V208.483H639.784ZM649.922 207.799H650.692V212.012C650.692 212.447 650.59 212.836 650.385 213.178C650.182 213.517 649.895 213.786 649.524 213.982C649.153 214.177 648.718 214.274 648.219 214.274C647.72 214.274 647.285 214.177 646.914 213.982C646.543 213.786 646.255 213.517 646.05 213.178C645.847 212.836 645.746 212.447 645.746 212.012V207.799H646.516V211.95C646.516 212.261 646.585 212.538 646.721 212.78C646.858 213.02 647.053 213.21 647.306 213.348C647.56 213.485 647.865 213.554 648.219 213.554C648.573 213.554 648.878 213.485 649.133 213.348C649.387 213.21 649.582 213.02 649.717 212.78C649.853 212.538 649.922 212.261 649.922 211.95V207.799ZM652.231 214.163V207.799H656.047V208.483H653.002V210.633H655.761V211.316H653.002V214.163H652.231ZM662.413 207.799V214.163H661.667L658.2 209.166H658.137V214.163H657.367V207.799H658.113L661.593 212.808H661.655V207.799H662.413ZM663.955 214.163V207.799H667.795V208.483H664.726V210.633H667.597V211.316H664.726V213.479H667.845V214.163H663.955ZM668.836 208.483V207.799H673.609V208.483H671.608V214.163H670.837V208.483H668.836Z" fill="black" fill-opacity="0.4"/>
</svg>
