<svg width="33" height="33" viewBox="0 0 33 33" fill="none" xmlns="http://www.w3.org/2000/svg">
<path d="M22.2707 13.8281H24.9374M22.2707 19.1615H24.9374M9.16406 20.4948C9.43892 19.7135 9.94953 19.0367 10.6254 18.558C11.3013 18.0793 12.1091 17.8222 12.9374 17.8222C13.7657 17.8222 14.5735 18.0793 15.2494 18.558C15.9253 19.0367 16.4359 19.7135 16.7107 20.4948" stroke="white" stroke-width="2" stroke-linecap="round" stroke-linejoin="round"/>
<path d="M12.9372 17.8333C14.4099 17.8333 15.6038 16.6394 15.6038 15.1667C15.6038 13.6939 14.4099 12.5 12.9372 12.5C11.4644 12.5 10.2705 13.6939 10.2705 15.1667C10.2705 16.6394 11.4644 17.8333 12.9372 17.8333Z" stroke="white" stroke-width="2" stroke-linecap="round" stroke-linejoin="round"/>
<path d="M27.604 7.16406H6.27067C4.79791 7.16406 3.604 8.35797 3.604 9.83073V23.1641C3.604 24.6368 4.79791 25.8307 6.27067 25.8307H27.604C29.0768 25.8307 30.2707 24.6368 30.2707 23.1641V9.83073C30.2707 8.35797 29.0768 7.16406 27.604 7.16406Z" stroke="white" stroke-width="2" stroke-linecap="round" stroke-linejoin="round"/>
</svg>
