<svg width="33" height="33" viewBox="0 0 33 33" fill="none" xmlns="http://www.w3.org/2000/svg">
<path d="M10.2891 7.23245C9.52558 7.31704 8.81278 7.65637 8.26571 8.1957C7.71864 8.73503 7.3692 9.44293 7.27375 10.2052C6.78471 14.3865 6.78471 18.6106 7.27375 22.7919C7.36892 23.5545 7.71823 24.2627 8.26532 24.8023C8.81242 25.3419 9.52537 25.6814 10.2891 25.7661C14.3825 26.2239 18.6175 26.2239 22.7109 25.7661C23.4744 25.6811 24.187 25.3415 24.7338 24.8019C25.2807 24.2623 25.6298 23.5543 25.7249 22.7919C26.0769 19.7876 26.1759 16.7612 26.0219 13.7444C26.02 13.7059 26.0262 13.6673 26.0402 13.6313C26.0542 13.5953 26.0756 13.5626 26.103 13.5354L27.5303 12.1054C27.567 12.0679 27.6138 12.0418 27.665 12.0303C27.7162 12.0188 27.7697 12.0223 27.819 12.0405C27.8682 12.0587 27.9112 12.0907 27.9427 12.1327C27.9741 12.1747 27.9928 12.2249 27.9964 12.2773C28.2651 15.8613 28.1905 19.4628 27.7736 23.0326C27.478 25.5571 25.4499 27.5357 22.9391 27.8176C18.6595 28.292 14.3405 28.292 10.0609 27.8176C7.54875 27.5357 5.52063 25.5571 5.22638 23.0326C4.7198 18.6913 4.7198 14.3058 5.22638 9.96457C5.52063 7.4387 7.55013 5.46145 10.0609 5.17957C14.3405 4.70512 18.6595 4.70512 22.9391 5.17957C23.8041 5.27728 24.6335 5.57887 25.3591 6.05957C25.3915 6.0814 25.4186 6.11021 25.4384 6.14388C25.4582 6.17756 25.4701 6.21524 25.4734 6.25415C25.4767 6.29307 25.4713 6.33223 25.4574 6.36875C25.4436 6.40527 25.4218 6.43823 25.3935 6.4652L24.2894 7.56932C24.2447 7.61308 24.1871 7.64117 24.1251 7.64935C24.0631 7.65753 24.0001 7.64537 23.9456 7.6147C23.5621 7.40939 23.1431 7.27875 22.7109 7.2297C18.5829 6.77213 14.4171 6.77213 10.2891 7.2297" fill="white"/>
<path d="M28.9162 8.29134C29.0176 8.19693 29.0988 8.08308 29.1552 7.95658C29.2116 7.83008 29.2419 7.69352 29.2443 7.55506C29.2468 7.41659 29.2213 7.27905 29.1694 7.15064C29.1175 7.02223 29.0403 6.90559 28.9424 6.80766C28.8445 6.70974 28.7278 6.63254 28.5994 6.58067C28.471 6.5288 28.3335 6.50333 28.195 6.50578C28.0566 6.50822 27.92 6.53853 27.7935 6.59489C27.667 6.65125 27.5532 6.73252 27.4587 6.83384L15.8125 18.4801L12.4162 15.0838C12.3218 14.9825 12.208 14.9013 12.0815 14.8449C11.955 14.7885 11.8184 14.7582 11.68 14.7558C11.5415 14.7533 11.404 14.7788 11.2756 14.8307C11.1471 14.8825 11.0305 14.9597 10.9326 15.0577C10.8346 15.1556 10.7574 15.2722 10.7056 15.4006C10.6537 15.5291 10.6282 15.6666 10.6307 15.8051C10.6331 15.9435 10.6634 16.0801 10.7198 16.2066C10.7762 16.3331 10.8574 16.4469 10.9587 16.5413L15.0837 20.6663C15.2771 20.8595 15.5392 20.9679 15.8125 20.9679C16.0858 20.9679 16.3479 20.8595 16.5412 20.6663L28.9162 8.29134Z" fill="white"/>
</svg>
