<svg width="33" height="28" viewBox="0 0 33 28" fill="none" xmlns="http://www.w3.org/2000/svg">
<g clip-path="url(#clip0_2255_2536)">
<path fill-rule="evenodd" clip-rule="evenodd" d="M17.495 1.65125H15.9706L15.0974 5.13155L14.2214 5.40155C13.711 5.55839 13.2165 5.76268 12.7444 6.01175L11.9334 6.4397L8.84664 4.5929L7.76898 5.66885L9.62104 8.74685L9.19187 9.55415C8.94163 10.0249 8.7363 10.518 8.57858 11.027L8.30917 11.9004L4.81895 12.7712V14.2913L8.30917 15.1621L8.57994 16.0355C8.73608 16.5467 8.94006 17.0377 9.19187 17.5084L9.62104 18.317L7.76898 21.395L8.848 22.4696L11.9348 20.6228L12.7444 21.0508C13.2164 21.3009 13.7088 21.5048 14.2214 21.6623L15.0974 21.931L15.9706 25.4112H17.495L18.3682 21.931L19.2442 21.6609C19.7546 21.5041 20.2491 21.2998 20.7212 21.0508L21.5322 20.6228L24.619 22.4696L25.6966 21.3937L23.8446 18.3156L24.2737 17.5084C24.5246 17.0377 24.7291 16.5467 24.887 16.0355L25.1564 15.1621L28.6466 14.2913V12.7712L25.1564 11.9004L24.8857 11.027C24.7284 10.518 24.5235 10.0249 24.2737 9.55415L23.8446 8.7455L25.6966 5.6675L24.6176 4.5929L21.5308 6.4397L20.7212 6.01175C20.2492 5.76222 19.7547 5.55747 19.2442 5.4002L18.3682 5.13155L17.495 1.65125ZM21.4821 4.58075L23.9637 3.09575C24.2225 2.94099 24.5256 2.87686 24.8251 2.91355C25.1246 2.95024 25.4032 3.08564 25.6167 3.29825L26.995 4.67255C27.2082 4.88545 27.344 5.16327 27.3807 5.4619C27.4175 5.76054 27.3532 6.06287 27.198 6.3209L25.7088 8.79545C26.0066 9.35345 26.2503 9.93845 26.4399 10.5505L29.2464 11.2511C29.5392 11.3242 29.799 11.4928 29.9847 11.7301C30.1704 11.9673 30.2713 12.2596 30.2713 12.5606V14.5019C30.2713 14.8029 30.1704 15.0952 29.9847 15.3324C29.799 15.5697 29.5392 15.7383 29.2464 15.8114L26.4399 16.5121C26.2503 17.1241 26.0066 17.7091 25.7088 18.2671L27.198 20.7416C27.3532 20.9996 27.4175 21.302 27.3807 21.6006C27.344 21.8992 27.2082 22.1771 26.995 22.39L25.6167 23.7642C25.4032 23.9769 25.1246 24.1123 24.8251 24.149C24.5256 24.1856 24.2225 24.1215 23.9637 23.9667L21.4821 22.4817C20.9225 22.7787 20.3358 23.0218 19.7221 23.2108L19.0194 26.0093C18.9461 26.3012 18.777 26.5604 18.5391 26.7455C18.3012 26.9307 18.008 27.0312 17.7062 27.0312H15.7594C15.4576 27.0312 15.1644 26.9307 14.9265 26.7455C14.6886 26.5604 14.5195 26.3012 14.4462 26.0093L13.7435 23.2108C13.1352 23.0233 12.546 22.7792 11.9835 22.4817L9.50191 23.9667C9.24314 24.1215 8.93995 24.1856 8.64046 24.149C8.34097 24.1123 8.06236 23.9769 7.84886 23.7642L6.47064 22.39C6.25742 22.1771 6.12164 21.8992 6.08485 21.6006C6.04805 21.302 6.11236 20.9996 6.26757 20.7416L7.7568 18.2671C7.45847 17.7062 7.2137 17.1186 7.02572 16.5121L4.2192 15.8114C3.92666 15.7383 3.66696 15.5699 3.4813 15.333C3.29564 15.096 3.19465 14.804 3.19434 14.5033V12.5619C3.19434 12.261 3.2952 11.9687 3.48088 11.7314C3.66657 11.4942 3.92643 11.3256 4.2192 11.2525L7.02572 10.5518C7.21526 9.9398 7.45895 9.3548 7.7568 8.7968L6.26757 6.32225C6.11236 6.06422 6.04805 5.76189 6.08485 5.46325C6.12164 5.16462 6.25742 4.8868 6.47064 4.6739L7.84886 3.29825C8.06236 3.08564 8.34097 2.95024 8.64046 2.91355C8.93995 2.87686 9.24314 2.94099 9.50191 3.09575L11.9835 4.58075C12.5431 4.28375 13.1298 4.04075 13.7435 3.85175L14.4462 1.0532C14.5194 0.761491 14.6883 0.502533 14.926 0.3174C15.1636 0.132266 15.4564 0.0315587 15.758 0.03125H17.7049C18.0067 0.0312579 18.2998 0.131828 18.5378 0.316985C18.7757 0.502142 18.9447 0.761267 19.0181 1.0532L19.7207 3.85175C20.3345 4.04075 20.9211 4.28375 21.4807 4.58075H21.4821ZM16.7328 17.3113C17.7382 17.3113 18.7024 16.913 19.4133 16.2041C20.1242 15.4952 20.5236 14.5338 20.5236 13.5312C20.5236 12.5287 20.1242 11.5673 19.4133 10.8584C18.7024 10.1495 17.7382 9.75125 16.7328 9.75125C15.7274 9.75125 14.7632 10.1495 14.0523 10.8584C13.3414 11.5673 12.942 12.5287 12.942 13.5312C12.942 14.5338 13.3414 15.4952 14.0523 16.2041C14.7632 16.913 15.7274 17.3113 16.7328 17.3113ZM16.7328 18.9312C15.2965 18.9312 13.9191 18.3623 12.9035 17.3496C11.888 16.3369 11.3174 14.9634 11.3174 13.5312C11.3174 12.0991 11.888 10.7256 12.9035 9.71287C13.9191 8.70018 15.2965 8.13125 16.7328 8.13125C18.169 8.13125 19.5465 8.70018 20.5621 9.71287C21.5776 10.7256 22.1482 12.0991 22.1482 13.5312C22.1482 14.9634 21.5776 16.3369 20.5621 17.3496C19.5465 18.3623 18.169 18.9312 16.7328 18.9312Z" fill="white"/>
</g>
<defs>
<clipPath id="clip0_2255_2536">
<rect width="32" height="27" fill="white" transform="translate(0.9375 0.5)"/>
</clipPath>
</defs>
</svg>
